<?xml version="1.0" encoding="UTF-8"?> <svg xmlns="http://www.w3.org/2000/svg" width="67" height="67" viewBox="0 0 67 67" fill="none"><mask id="mask0_120_2446" style="mask-type:luminance" maskUnits="userSpaceOnUse" x="0" y="0" width="67" height="67"><path d="M0 7.62939e-06H67V67H0V7.62939e-06Z" fill="white"></path></mask><g mask="url(#mask0_120_2446)"><path d="M58.8867 38.3499V63.0725C58.8867 64.5118 57.7073 65.6914 56.2685 65.6914H10.7279C9.28892 65.6914 8.11328 64.5118 8.11328 63.0725V38.1424V3.92369C8.11328 2.4845 9.28892 1.30859 10.7279 1.30859H50.0305L58.8867 10.1628V27.0662" stroke="#E4E8FF" stroke-width="2.5" stroke-miterlimit="10" stroke-linecap="round" stroke-linejoin="round"></path><path d="M50.0303 1.3079V7.54702C50.0303 8.98634 51.2098 10.1621 52.6486 10.1621H58.8864" stroke="#E4E8FF" stroke-width="2.5" stroke-miterlimit="10" stroke-linecap="round" stroke-linejoin="round"></path><path d="M38.8047 16.6914H44.4157" stroke="#E4E8FF" stroke-width="2.5" stroke-miterlimit="10" stroke-linecap="round" stroke-linejoin="round"></path><path d="M35.7712 16.0231C35.7712 16.8576 35.5339 17.5253 35.0518 18.0298C34.5694 18.5306 33.9874 18.8608 33.3051 19.0239V20.1479C33.3051 20.6671 32.8638 21.0938 32.3408 21.0938C31.8216 21.0938 31.3988 20.6671 31.3988 20.1479V19.0313C30.9724 18.9348 30.5867 18.7754 30.2418 18.5566C29.7819 18.2637 29.6114 18.104 29.2962 17.6923C28.4247 16.5536 29.8635 15.3332 30.6979 16.2122C30.8017 16.3199 30.9094 16.4459 31.0316 16.5832C31.3802 16.9727 31.892 17.0357 32.3112 17.0357C33.101 17.0357 33.4978 16.7093 33.4978 16.0564C33.4978 15.8229 33.3459 15.6411 33.0491 15.5113C32.7486 15.3813 32.3852 15.2665 31.9589 15.1662C31.5286 15.0661 31.1022 14.9288 30.6757 14.7582C30.2492 14.5877 29.8857 14.2909 29.5854 13.8754C29.2851 13.4599 29.1367 12.9296 29.1367 12.2878C29.1367 11.6461 29.3443 11.0711 29.7448 10.5555C30.1453 10.0474 30.7202 9.70244 31.4136 9.56517L31.4174 9.34991V8.27071C31.4174 7.75133 31.8401 7.32839 32.3593 7.32839C32.8786 7.32839 33.3051 7.75133 33.3051 8.27071V9.58009C33.6017 9.64303 33.8761 9.73215 34.121 9.85084C34.3693 9.96953 34.5398 10.0658 34.6363 10.1402L34.7772 10.27C36.0196 11.1972 34.8217 12.8479 33.7501 11.9465C33.0268 11.3345 31.3802 11.2009 31.3802 12.3212C31.3802 12.5549 31.4916 12.744 31.7103 12.8887C31.9292 13.0333 32.1998 13.1299 32.5189 13.1781C32.8378 13.2264 33.1938 13.3077 33.5758 13.4191C33.9613 13.5303 34.3137 13.6603 34.6363 13.8122C34.9553 13.9607 35.2259 14.224 35.4449 14.6061C35.6637 14.9844 35.7712 15.4593 35.7712 16.0231Z" fill="#E4E8FF"></path><path d="M19.999 16.6914H25.61" stroke="#E4E8FF" stroke-width="2.5" stroke-miterlimit="10" stroke-linecap="round" stroke-linejoin="round"></path><path d="M38.8047 11.9238H44.4157" stroke="#E4E8FF" stroke-width="2.5" stroke-miterlimit="10" stroke-linecap="round" stroke-linejoin="round"></path><path d="M19.999 11.9238H25.61" stroke="#E4E8FF" stroke-width="2.5" stroke-miterlimit="10" stroke-linecap="round" stroke-linejoin="round"></path><path d="M32.0625 26.832H47.0709" stroke="#E4E8FF" stroke-width="2.5" stroke-miterlimit="10" stroke-linecap="round" stroke-linejoin="round"></path><path d="M32.0625 31.8262H47.0709" stroke="#E4E8FF" stroke-width="2.5" stroke-miterlimit="10" stroke-linecap="round" stroke-linejoin="round"></path><path d="M17.9814 32.6348H25.7546V25.5648H17.9814V32.6348Z" stroke="#E4E8FF" stroke-width="2.5" stroke-miterlimit="10" stroke-linecap="round" stroke-linejoin="round"></path><path d="M17.9814 44.6816H25.7546V37.6117H17.9814V44.6816Z" stroke="#E4E8FF" stroke-width="2.5" stroke-miterlimit="10" stroke-linecap="round" stroke-linejoin="round"></path><path d="M17.9814 57.9766H25.7546V50.9028H17.9814V57.9766Z" stroke="#E4E8FF" stroke-width="2.5" stroke-miterlimit="10" stroke-linecap="round" stroke-linejoin="round"></path><path d="M31.9736 38.6621H46.982" stroke="#E4E8FF" stroke-width="2.5" stroke-miterlimit="10" stroke-linecap="round" stroke-linejoin="round"></path><path d="M31.9736 43.6582H46.982" stroke="#E4E8FF" stroke-width="2.5" stroke-miterlimit="10" stroke-linecap="round" stroke-linejoin="round"></path><path d="M31.9736 52.0195H46.9857" stroke="#E4E8FF" stroke-width="2.5" stroke-miterlimit="10" stroke-linecap="round" stroke-linejoin="round"></path><path d="M31.9736 57.0117H46.9857" stroke="#E4E8FF" stroke-width="2.5" stroke-miterlimit="10" stroke-linecap="round" stroke-linejoin="round"></path><path d="M58.8867 32.293V32.2671" stroke="black" stroke-miterlimit="10" stroke-linecap="round" stroke-linejoin="round"></path></g></svg> 