<?xml version="1.0" encoding="UTF-8"?> <svg xmlns="http://www.w3.org/2000/svg" width="68" height="68" viewBox="0 0 68 68" fill="none"><path d="M58.4375 30.8125H60.5625V32.9375H58.4375V30.8125Z" fill="#E4E8FF"></path><path d="M54.1875 30.8125H56.3125V32.9375H54.1875V30.8125Z" fill="#E4E8FF"></path><path d="M49.9375 30.8125H52.0625V32.9375H49.9375V30.8125Z" fill="#E4E8FF"></path><path d="M45.6875 18.0625H64.8125C65.9844 18.0625 66.9375 17.1094 66.9375 15.9375V3.1875C66.9375 2.01556 65.9844 1.0625 64.8125 1.0625H45.6875C44.5156 1.0625 43.5625 2.01556 43.5625 3.1875V5.3125H41.4375C40.2656 5.3125 39.3125 6.26556 39.3125 7.4375V24.4375H37.1875V6.375C37.1875 3.44569 34.8043 1.0625 31.875 1.0625H6.375C3.44569 1.0625 1.0625 3.44569 1.0625 6.375V61.625C1.0625 64.5543 3.44569 66.9375 6.375 66.9375H31.875C34.8043 66.9375 37.1875 64.5543 37.1875 61.625V39.3125H39.3125V56.3125C39.3125 57.4844 40.2656 58.4375 41.4375 58.4375H46.2018C46.5906 59.3778 47.1856 60.2299 47.9687 60.9163L55.25 67.2871L62.5313 60.9163C63.9806 59.6466 64.8125 57.8149 64.8125 55.8886V55.6229C64.8125 54.4733 64.4757 53.3609 63.8382 52.4036C62.8076 50.8597 61.0852 49.9375 59.2291 49.9375C57.749 49.9375 56.3582 50.5134 55.3127 51.5599L55.25 51.6226L55.1873 51.5599C54.1418 50.5134 52.7499 49.9375 51.2709 49.9375C49.4148 49.9375 47.6924 50.8597 46.6618 52.4036C46.0243 53.3598 45.6875 54.4733 45.6875 55.6219V55.8875C45.6875 56.0299 45.7013 56.1701 45.7098 56.3114H41.4375V39.3125C41.4375 38.4529 40.9233 37.7156 40.188 37.3809C40.9562 36.4597 41.4375 35.2909 41.4375 34C41.4375 33.6366 41.4003 33.2807 41.3302 32.9375H43.5625V37.1875C43.5625 38.3594 44.5156 39.3125 45.6875 39.3125H49.9375V41.0837C49.9375 42.4501 51.0499 43.5625 52.4163 43.5625C53.1919 43.5625 53.9336 43.1917 54.3989 42.5712L56.8438 39.3125H64.8125C65.9844 39.3125 66.9375 38.3594 66.9375 37.1875V26.5625C66.9375 25.3906 65.9844 24.4375 64.8125 24.4375H45.6875C44.5156 24.4375 43.5625 25.3906 43.5625 26.5625V30.8125H40.3474C39.5813 29.7999 38.4753 29.0572 37.1875 28.7948V26.5625H39.3125C40.4844 26.5625 41.4375 25.6094 41.4375 24.4375V7.4375H43.5625V15.9375C43.5625 17.1094 44.5156 18.0625 45.6875 18.0625ZM47.8125 55.6229C47.8125 54.8941 48.0261 54.1886 48.4298 53.584C49.0652 52.6309 50.1266 52.0625 51.2709 52.0625C52.1826 52.0625 53.04 52.4174 53.6849 53.0623L55.25 54.6274L56.8151 53.0623C57.46 52.4174 58.3174 52.0625 59.2291 52.0625C60.3734 52.0625 61.4348 52.6309 62.0702 53.5829C62.4739 54.1886 62.6875 54.8941 62.6875 55.6229V55.8886C62.6875 57.2018 62.1201 58.4513 61.132 59.3172L55.25 64.4629L49.368 59.3162C48.3799 58.4513 47.8125 57.2018 47.8125 55.8886V55.6229ZM45.6875 26.5625H64.8125L64.8136 37.1875H55.7812L52.7 41.2962C52.5162 41.5406 52.0625 41.3908 52.0625 41.0837V37.1875H45.6875V26.5625ZM35.0625 6.375V25.1706C34.5185 24.3514 33.7896 23.6693 32.9375 23.1742V9.5625C32.9375 8.39056 31.9844 7.4375 30.8125 7.4375H24.4375V3.1875H31.875C33.6324 3.1875 35.0625 4.61762 35.0625 6.375ZM25.0113 24.4375H11.6875V15.9375H26.5625V23.1753C25.9802 23.5131 25.4586 23.9403 25.0113 24.4375ZM9.5625 13.8125V26.5625H23.7469C23.511 27.2287 23.375 27.9416 23.375 28.6875C20.4457 28.6875 18.0625 31.0707 18.0625 34C18.0625 36.9293 20.4457 39.3125 23.375 39.3125H30.8125V52.0625H7.4375V9.5625H30.8125V22.4081C30.4661 22.3497 30.1123 22.3125 29.75 22.3125C29.3877 22.3125 29.0339 22.3497 28.6875 22.4081V13.8125H9.5625ZM20.1875 7.4375V5.3125H18.0625V7.4375H15.9375V3.1875H22.3125V7.4375H20.1875ZM31.875 64.8125H6.375C4.61762 64.8125 3.1875 63.3824 3.1875 61.625V6.375C3.1875 4.61762 4.61762 3.1875 6.375 3.1875H13.8125V7.4375H7.4375C6.26556 7.4375 5.3125 8.39056 5.3125 9.5625V52.0625C5.3125 53.2344 6.26556 54.1875 7.4375 54.1875H30.8125C31.9844 54.1875 32.9375 53.2344 32.9375 52.0625V39.3125H35.0625V61.625C35.0625 63.3824 33.6324 64.8125 31.875 64.8125ZM39.3125 34C39.3125 35.7574 37.8824 37.1875 36.125 37.1875H23.375C21.6176 37.1875 20.1875 35.7574 20.1875 34C20.1875 32.2426 21.6176 30.8125 23.375 30.8125C23.6768 30.8125 23.9891 30.8582 24.276 30.9464L26.0483 31.4872L25.619 29.6841C25.5404 29.3494 25.5 29.0147 25.5 28.6875C25.5 26.3436 27.4061 24.4375 29.75 24.4375C32.0939 24.4375 34 26.3436 34 28.6875C34 29.0147 33.9596 29.3494 33.8799 29.6841L33.4507 31.4872L35.2229 30.9464C35.5109 30.8582 35.8232 30.8125 36.125 30.8125C37.8824 30.8125 39.3125 32.2426 39.3125 34ZM52.6873 10.7132C53.3938 11.3411 54.3033 11.6875 55.25 11.6875C56.1967 11.6875 57.1062 11.3411 57.8127 10.7132L57.9572 10.5846L63.3101 15.9375H47.1899L52.5428 10.5846L52.6873 10.7132ZM59.5478 9.17044L64.8125 4.49119L64.8136 14.4362L59.5478 9.17044ZM56.4007 9.12475C55.7664 9.68894 54.7336 9.69 54.0993 9.12475L47.4204 3.1875H63.0806L56.4007 9.12475ZM50.9522 9.17044L45.6875 14.4351V4.49119L50.9522 9.17044Z" fill="#E4E8FF"></path><path d="M22.3125 56.3125H15.9375C14.7656 56.3125 13.8125 57.2656 13.8125 58.4375V60.5625C13.8125 61.7344 14.7656 62.6875 15.9375 62.6875H22.3125C23.4844 62.6875 24.4375 61.7344 24.4375 60.5625V58.4375C24.4375 57.2656 23.4844 56.3125 22.3125 56.3125ZM15.9375 60.5625V58.4375H22.3125L22.3136 60.5625H15.9375Z" fill="#E4E8FF"></path><path d="M9.5625 45.6875H18.0625V47.8125H9.5625V45.6875Z" fill="#E4E8FF"></path><path d="M20.1875 45.6875H28.6875V47.8125H20.1875V45.6875Z" fill="#E4E8FF"></path><path d="M9.5625 37.1875H18.0625V39.3125H9.5625V37.1875Z" fill="#E4E8FF"></path><path d="M9.5625 28.6875H11.6875V30.8125H9.5625V28.6875Z" fill="#E4E8FF"></path><path d="M13.8125 28.6875H15.9375V30.8125H13.8125V28.6875Z" fill="#E4E8FF"></path><path d="M9.5625 41.4375H28.6875V43.5625H9.5625V41.4375Z" fill="#E4E8FF"></path></svg> 