<?xml version="1.0" encoding="UTF-8"?> <svg xmlns="http://www.w3.org/2000/svg" width="69" height="69" viewBox="0 0 69 69" fill="none"><path d="M13.0802 35.8094C12.9662 35.7251 12.8368 35.664 12.6992 35.6297C12.5617 35.5954 12.4187 35.5886 12.2785 35.6096C12.1383 35.6306 12.0036 35.6791 11.8822 35.7522C11.7608 35.8254 11.6549 35.9218 11.5708 36.0358C7.9143 40.994 5.45758 46.7326 4.39371 52.8007L2.17278 65.5808C2.14494 65.7217 2.14555 65.8668 2.17459 66.0075C2.20362 66.1483 2.26049 66.2818 2.34184 66.4002C2.4232 66.5186 2.52741 66.6196 2.64834 66.6971C2.76928 66.7747 2.9045 66.8273 3.04606 66.8519C3.18762 66.8765 3.33267 66.8725 3.47267 66.8403C3.61268 66.808 3.74482 66.748 3.86133 66.664C3.97784 66.5799 4.07638 66.4734 4.15114 66.3507C4.2259 66.228 4.27539 66.0916 4.29668 65.9495L6.51978 53.1705C7.52546 47.4339 9.84826 42.0089 13.3055 37.322C13.3904 37.2081 13.452 37.0785 13.4867 36.9406C13.5213 36.8028 13.5284 36.6595 13.5074 36.5189C13.4865 36.3783 13.438 36.2432 13.3646 36.1215C13.2913 35.9997 13.1946 35.8937 13.0802 35.8094Z" fill="#E4E8FF"></path><path d="M60.3082 18.658C60.1078 17.5327 59.4696 16.5327 58.5334 15.877C57.5972 15.2212 56.4393 14.9632 55.3132 15.1595L53.9117 15.4075V7.54688C53.9099 6.11772 53.3415 4.74759 52.3309 3.73702C51.3203 2.72645 49.9502 2.15796 48.521 2.15625H35.5781C35.2922 2.15625 35.018 2.26984 34.8158 2.47203C34.6136 2.67421 34.5 2.94844 34.5 3.23438C34.5 3.52031 34.6136 3.79454 34.8158 3.99672C35.018 4.19891 35.2922 4.3125 35.5781 4.3125H48.5156C49.3734 4.3125 50.1961 4.65326 50.8027 5.25983C51.4092 5.86639 51.75 6.68907 51.75 7.54688V23.5409C51.4937 23.5366 51.2375 23.5554 50.9845 23.5969L49.5938 23.8427V7.54688C49.5938 7.26094 49.4802 6.98671 49.278 6.78453C49.0758 6.58234 48.8016 6.46875 48.5156 6.46875H29.1094C28.8234 6.46875 28.5492 6.58234 28.347 6.78453C28.1448 6.98671 28.0313 7.26094 28.0313 7.54688C28.0313 8.40468 27.6905 9.22736 27.0839 9.83392C26.4774 10.4405 25.6547 10.7812 24.7969 10.7812H20.4844C20.1985 10.7812 19.9242 10.8948 19.722 11.097C19.5198 11.2992 19.4063 11.5734 19.4063 11.8594V44.9578L17.25 45.8688V7.54688C17.25 6.68907 17.5908 5.86639 18.1973 5.25983C18.8039 4.65326 19.6266 4.3125 20.4844 4.3125H31.2656C31.5516 4.3125 31.8258 4.19891 32.028 3.99672C32.2302 3.79454 32.3438 3.52031 32.3438 3.23438C32.3438 2.94844 32.2302 2.67421 32.028 2.47203C31.8258 2.26984 31.5516 2.15625 31.2656 2.15625H20.4844C19.0552 2.15796 17.6851 2.72645 16.6745 3.73702C15.664 4.74759 15.0955 6.11772 15.0938 7.54688V46.9125C12.7973 48.233 10.8901 50.1364 9.56497 52.4302C8.23982 54.724 7.54368 57.327 7.54689 59.9761C7.54689 60.262 7.66047 60.5363 7.86266 60.7384C8.06485 60.9406 8.33907 61.0542 8.62501 61.0542C8.91095 61.0542 9.18517 60.9406 9.38736 60.7384C9.58955 60.5363 9.70314 60.262 9.70314 59.9761C9.6993 57.4298 10.4485 54.9393 11.8566 52.8178C13.2647 50.6963 15.2687 49.0385 17.6166 48.0531L21.39 46.4586C23.3579 45.629 25.4499 45.1321 27.5806 44.988L36.529 44.3648C36.5903 44.3648 36.6515 44.3612 36.7123 44.3541C37.0431 44.3568 37.3619 44.478 37.6111 44.6955C37.8603 44.913 38.0234 45.2126 38.0708 45.54C38.2314 46.6635 37.9427 47.8051 37.2672 48.7172C36.5917 49.6292 35.5838 50.2382 34.4623 50.412L33.092 50.6169C32.8117 50.6619 32.5605 50.8156 32.3928 51.0446C32.2252 51.2737 32.1546 51.5597 32.1965 51.8404C32.2384 52.1212 32.3893 52.3741 32.6165 52.5443C32.8437 52.7145 33.1288 52.7882 33.41 52.7494L34.7825 52.5446C36.4661 52.2838 37.9793 51.3704 38.9943 50.0021C40.0093 48.6337 40.4444 46.9207 40.2054 45.2338C40.144 44.8082 40.0052 44.3975 39.7958 44.022C39.855 43.7266 39.8867 43.4263 39.8906 43.125C39.8919 41.7332 39.3535 40.3951 38.3887 39.392C37.4238 38.389 36.1077 37.799 34.7169 37.7463C33.3261 37.6935 31.969 38.182 30.9309 39.1091C29.8928 40.0361 29.2546 41.3296 29.1504 42.7175L27.4254 42.8361C25.4217 42.9787 23.448 43.4026 21.5625 44.0953V12.9375H24.7969C26.0392 12.9361 27.243 12.5064 28.2053 11.7208C29.1676 10.9353 29.8297 9.84185 30.0797 8.625H47.4375V24.5101C46.8474 24.8517 46.3473 25.329 45.9787 25.9026C45.61 26.4761 45.3834 27.1293 45.3178 27.808C45.2521 28.4866 45.3492 29.1711 45.6011 29.8047C45.8529 30.4383 46.2522 31.0027 46.7658 31.4511C46.2062 31.9413 45.7832 32.5683 45.5381 33.2708C45.293 33.9733 45.2342 34.7273 45.3675 35.4593C45.5007 36.1913 45.8215 36.8763 46.2984 37.4473C46.7753 38.0184 47.3922 38.4561 48.0887 38.7176C47.6661 39.3926 47.4405 40.1724 47.4375 40.9688C47.4375 42.1125 47.8919 43.2094 48.7006 44.0181C49.5094 44.8269 50.6063 45.2812 51.75 45.2812V57.1406C51.75 57.9984 51.4092 58.8211 50.8027 59.4277C50.1961 60.0342 49.3734 60.375 48.5156 60.375H25.2141C25.4795 59.6793 25.6657 58.956 25.7694 58.2188H48.5156C48.8016 58.2188 49.0758 58.1052 49.278 57.903C49.4802 57.7008 49.5938 57.4266 49.5938 57.1406V47.4192C49.5938 47.1332 49.4802 46.859 49.278 46.6568C49.0758 46.4546 48.8016 46.341 48.5156 46.341C48.2297 46.341 47.9555 46.4546 47.7533 46.6568C47.5511 46.859 47.4375 47.1332 47.4375 47.4192V56.0625H26.1197L26.3666 55.1461C26.4746 54.741 26.6983 54.3761 27.0104 54.0961C27.3226 53.8162 27.7095 53.6333 28.124 53.5699L29.1482 53.4082C29.4307 53.3635 29.6839 53.2085 29.8521 52.9772C30.0204 52.7459 30.0898 52.4573 30.0452 52.1748C30.0006 51.8923 29.8456 51.6391 29.6143 51.4708C29.383 51.3026 29.0943 51.2332 28.8118 51.2778L27.7919 51.4395C26.965 51.567 26.193 51.9324 25.5701 52.491C24.9472 53.0495 24.5002 53.7773 24.2837 54.5855L23.7554 56.5477C23.7314 56.6392 23.7191 56.7334 23.7188 56.828C23.7159 58.9116 22.8869 60.909 21.4136 62.3823C19.9403 63.8557 17.9428 64.6846 15.8592 64.6875H8.62501C8.33907 64.6875 8.06485 64.8011 7.86266 65.0033C7.66047 65.2055 7.54689 65.4797 7.54689 65.7656C7.54689 66.0516 7.66047 66.3258 7.86266 66.528C8.06485 66.7302 8.33907 66.8438 8.62501 66.8438H15.8592C17.477 66.8431 19.0704 66.4505 20.5032 65.6994C21.9361 64.9484 23.1655 63.8613 24.0864 62.5312H36.9678C34.4185 63.9403 31.5543 64.682 28.6415 64.6875C28.3555 64.6875 28.0813 64.8011 27.8791 65.0033C27.6769 65.2055 27.5634 65.4797 27.5634 65.7656C27.5634 66.0516 27.6769 66.3258 27.8791 66.528C28.0813 66.7302 28.3555 66.8438 28.6415 66.8438C33.0753 66.8372 37.3737 65.3156 40.8243 62.5312H48.5156C49.9448 62.5295 51.3149 61.961 52.3255 60.9505C53.3361 59.9399 53.9045 58.5698 53.9063 57.1406V45.2812C54.9366 45.2843 55.9339 44.9173 56.7164 44.247C57.499 43.5768 58.015 42.6478 58.1704 41.6292C58.3258 40.6107 58.1103 39.5701 57.5632 38.697C57.0161 37.8239 56.1736 37.1762 55.1892 36.8719C55.5398 36.4033 55.7909 35.8679 55.927 35.2987C56.0631 34.7295 56.0813 34.1385 55.9806 33.562C55.8074 32.5892 55.3003 31.7073 54.5467 31.0683C55.0643 30.6286 55.469 30.0711 55.7268 29.4428C55.9846 28.8144 56.0881 28.1334 56.0286 27.4568C55.969 26.7802 55.7482 26.1278 55.3845 25.5541C55.0209 24.9804 54.5251 24.5023 53.9386 24.1597L56.8107 23.653C57.9361 23.4529 58.9362 22.8147 59.5918 21.8784C60.2475 20.9421 60.5051 19.784 60.3082 18.658ZM34.5 39.8906C35.2188 39.8929 35.9163 40.1344 36.4825 40.5772C37.0486 41.02 37.4512 41.6388 37.6266 42.3358C37.3292 42.2483 37.0212 42.2019 36.7112 42.1978C36.6573 42.1978 36.6034 42.1978 36.4536 42.2108L31.3228 42.5665C31.4539 41.8184 31.8441 41.1404 32.425 40.6511C33.006 40.1619 33.7405 39.8926 34.5 39.8906ZM51.3597 25.7208C51.4836 25.6986 51.6091 25.6874 51.7349 25.6874C52.2745 25.6872 52.7947 25.8893 53.1925 26.2538C53.5904 26.6184 53.8371 27.1188 53.884 27.6564C53.9308 28.194 53.7744 28.7297 53.4456 29.1575C53.1168 29.5854 52.6395 29.8744 52.108 29.9676L49.984 30.3417C49.4244 30.4329 48.8513 30.2999 48.3889 29.9716C47.9265 29.6433 47.6121 29.1461 47.5137 28.5876C47.4153 28.0292 47.5409 27.4544 47.8632 26.9879C48.1855 26.5213 48.6787 26.2005 49.2358 26.0949L51.3597 25.7208ZM47.4871 35.0617C47.4373 34.7825 47.443 34.4963 47.504 34.2194C47.565 33.9424 47.68 33.6802 47.8424 33.4478C48.0048 33.2154 48.2115 33.0172 48.4506 32.8648C48.6897 32.7123 48.9566 32.6086 49.2358 32.5594L51.3597 32.1853C51.4836 32.163 51.6091 32.1518 51.7349 32.1518C52.2745 32.1516 52.7947 32.3537 53.1925 32.7183C53.5904 33.0828 53.8371 33.5833 53.884 34.1209C53.9308 34.6585 53.7744 35.1941 53.4456 35.622C53.1168 36.0499 52.6395 36.3389 52.108 36.432L49.984 36.8061C49.4217 36.9052 48.843 36.7772 48.3749 36.4502C47.9068 36.1232 47.5875 35.6238 47.4871 35.0617ZM56.0625 40.9688C56.0625 41.5406 55.8353 42.0891 55.431 42.4935C55.0266 42.8978 54.4781 43.125 53.9063 43.125H51.75C51.1781 43.125 50.6297 42.8978 50.2253 42.4935C49.8209 42.0891 49.5938 41.5406 49.5938 40.9688C49.5938 40.3969 49.8209 39.8484 50.2253 39.444C50.6297 39.0397 51.1781 38.8125 51.75 38.8125H53.9063C54.4781 38.8125 55.0266 39.0397 55.431 39.444C55.8353 39.8484 56.0625 40.3969 56.0625 40.9688ZM53.9063 21.9765V17.5972L55.6873 17.2834C55.9662 17.2339 56.252 17.2397 56.5286 17.3007C56.8052 17.3616 57.0671 17.4764 57.2993 17.6385C57.5315 17.8007 57.7295 18.0069 57.882 18.2456C58.0345 18.4842 58.1385 18.7506 58.188 19.0294C58.2376 19.3083 58.2317 19.5942 58.1708 19.8707C58.1099 20.1473 57.9951 20.4092 57.8329 20.6414C57.6708 20.8736 57.4645 21.0716 57.2259 21.2241C56.9872 21.3766 56.7209 21.4806 56.442 21.5302L53.9063 21.9765Z" fill="#E4E8FF"></path><path d="M20.4844 8.625C21.0798 8.625 21.5625 8.14231 21.5625 7.54688C21.5625 6.95144 21.0798 6.46875 20.4844 6.46875C19.8889 6.46875 19.4062 6.95144 19.4062 7.54688C19.4062 8.14231 19.8889 8.625 20.4844 8.625Z" fill="#E4E8FF"></path><path d="M24.7969 8.625C25.3923 8.625 25.875 8.14231 25.875 7.54688C25.875 6.95144 25.3923 6.46875 24.7969 6.46875C24.2014 6.46875 23.7188 6.95144 23.7188 7.54688C23.7188 8.14231 24.2014 8.625 24.7969 8.625Z" fill="#E4E8FF"></path><path d="M24.7969 23.7188V29.1094C24.7969 29.3953 24.9105 29.6695 25.1126 29.8717C25.3148 30.0739 25.5891 30.1875 25.875 30.1875C26.1609 30.1875 26.4352 30.0739 26.6374 29.8717C26.8395 29.6695 26.9531 29.3953 26.9531 29.1094V26.9531H31.2656V29.1094C31.2656 29.3953 31.3792 29.6695 31.5814 29.8717C31.7836 30.0739 32.0578 30.1875 32.3438 30.1875C32.6297 30.1875 32.9039 30.0739 33.1061 29.8717C33.3083 29.6695 33.4219 29.3953 33.4219 29.1094V23.7188C33.4219 22.575 32.9675 21.4781 32.1588 20.6694C31.35 19.8606 30.2531 19.4062 29.1094 19.4062C27.9656 19.4062 26.8687 19.8606 26.06 20.6694C25.2512 21.4781 24.7969 22.575 24.7969 23.7188ZM29.1094 21.5625C29.6812 21.5625 30.2297 21.7897 30.6341 22.1941C31.0384 22.5984 31.2656 23.1469 31.2656 23.7188V24.7969H26.9531V23.7188C26.9531 23.1469 27.1803 22.5984 27.5847 22.1941C27.9891 21.7897 28.5375 21.5625 29.1094 21.5625Z" fill="#E4E8FF"></path><path d="M36.6562 19.4062C36.3703 19.4062 36.0961 19.5198 35.8939 19.722C35.6917 19.9242 35.5781 20.1984 35.5781 20.4844V29.1094C35.5781 29.3953 35.6917 29.6695 35.8939 29.8717C36.0961 30.0739 36.3703 30.1875 36.6562 30.1875H40.9688C41.8266 30.1875 42.6492 29.8467 43.2558 29.2402C43.8624 28.6336 44.2031 27.8109 44.2031 26.9531V22.6406C44.2031 21.7828 43.8624 20.9601 43.2558 20.3536C42.6492 19.747 41.8266 19.4063 40.9688 19.4062H36.6562ZM42.0469 22.6406V26.9531C42.0469 27.2391 41.9333 27.5133 41.7311 27.7155C41.5289 27.9177 41.2547 28.0312 40.9688 28.0312H37.7344V21.5625H40.9688C41.2547 21.5625 41.5289 21.6761 41.7311 21.8783C41.9333 22.0805 42.0469 22.3547 42.0469 22.6406Z" fill="#E4E8FF"></path><path d="M28.0312 34.5H40.9688C41.2547 34.5 41.5289 34.3864 41.7311 34.1842C41.9333 33.982 42.0469 33.7078 42.0469 33.4219C42.0469 33.1359 41.9333 32.8617 41.7311 32.6595C41.5289 32.4573 41.2547 32.3438 40.9688 32.3438H28.0312C27.7453 32.3438 27.4711 32.4573 27.2689 32.6595C27.0667 32.8617 26.9531 33.1359 26.9531 33.4219C26.9531 33.7078 27.0667 33.982 27.2689 34.1842C27.4711 34.3864 27.7453 34.5 28.0312 34.5Z" fill="#E4E8FF"></path><path d="M40.9688 15.0938H28.0312C27.7453 15.0938 27.4711 15.2073 27.2689 15.4095C27.0667 15.6117 26.9531 15.8859 26.9531 16.1719C26.9531 16.4578 27.0667 16.732 27.2689 16.9342C27.4711 17.1364 27.7453 17.25 28.0312 17.25H40.9688C41.2547 17.25 41.5289 17.1364 41.7311 16.9342C41.9333 16.732 42.0469 16.4578 42.0469 16.1719C42.0469 15.8859 41.9333 15.6117 41.7311 15.4095C41.5289 15.2073 41.2547 15.0938 40.9688 15.0938Z" fill="#E4E8FF"></path></svg> 