<?xml version="1.0" encoding="UTF-8"?> <svg xmlns="http://www.w3.org/2000/svg" width="68" height="68" viewBox="0 0 68 68" fill="none"><g clip-path="url(#clip0_120_254)"><path d="M13.5996 5.66667V9.06667H39.6663V6.8H15.8663V5.66667C15.8663 3.78903 17.3886 2.26667 19.2663 2.26667H40.7996V0H19.2663C16.138 0.00387371 13.6035 2.53838 13.5996 5.66667Z" fill="#E4E8FF"></path><path d="M13.5996 24.9336V62.3336C13.6035 65.4619 16.138 67.9964 19.2663 68.0003H44.1996V65.7336H19.2663C17.3886 65.7336 15.8663 64.2112 15.8663 62.3336V58.9336H41.9329V56.6669H15.8663V24.9336H13.5996Z" fill="#E4E8FF"></path><path d="M52.1335 29.4668V43.7309L44.4348 36.0322C42.4276 34.025 39.1726 34.025 37.1655 36.0322C35.1584 38.0393 35.1584 41.2943 37.1655 43.3014L46.1868 52.3227L45.6838 53.2032C43.3352 57.2772 43.6434 62.3595 46.4668 66.1197V68.0001H48.7335V65.7335C48.7335 65.4761 48.646 65.226 48.485 65.0251C46.0258 61.9738 45.6943 57.7243 47.651 54.3287L48.5841 52.6957C48.8358 52.253 48.7611 51.6963 48.4014 51.3355L38.7681 41.7021C37.6757 40.5749 37.6901 38.7797 38.7996 37.6702C39.9097 36.5601 41.7049 36.5457 42.8322 37.6381L54.7322 49.5381L56.3348 47.9355L54.4001 45.9975V29.4668H52.1335Z" fill="#E4E8FF"></path><path d="M32.8662 61.1992H35.1329V63.4659H32.8662V61.1992Z" fill="#E4E8FF"></path><path d="M62.3333 68.0007V45.3838C62.3361 42.3756 61.2492 39.4676 59.2731 37.1987L57.5393 35.1113L55.7939 36.5584L57.5426 38.6679C59.1696 40.5268 60.0666 42.9135 60.0666 45.3838V68.0007H62.3333Z" fill="#E4E8FF"></path><path d="M37.4004 28.334H39.6671V32.8673H37.4004V28.334Z" fill="#E4E8FF"></path><path d="M8.35417 9.31863C8.08799 9.5339 7.93359 9.85763 7.93359 10.2002V21.5335C7.93359 22.1594 8.44105 22.6668 9.06693 22.6668C9.12061 22.6668 9.17484 22.663 9.22796 22.6558L19.2669 21.2208V26.0668C19.2669 27.9445 20.7893 29.4668 22.6669 29.4668H28.3336V53.2668C28.3336 53.8927 28.8411 54.4002 29.4669 54.4002H38.5336C39.1595 54.4002 39.6669 53.8927 39.6669 53.2668V47.6002H37.4003V52.1335H35.1336V43.0668H32.8669V52.1335H30.6003V28.3335C30.6003 27.7076 30.0928 27.2002 29.4669 27.2002H22.6669C22.041 27.2002 21.5336 26.6927 21.5336 26.0668V20.8977L23.8003 20.5734V23.8002C23.8003 24.4261 24.3077 24.9335 24.9336 24.9335H38.5336C40.4112 24.9335 41.9336 26.4559 41.9336 28.3335V32.8668H44.2003V28.3335C44.1964 25.2052 41.6619 22.6707 38.5336 22.6668H38.5043C39.2541 21.6918 39.6625 20.497 39.6669 19.2668V17.0002C39.6669 13.8708 37.1297 11.3335 34.0003 11.3335C30.8709 11.3335 28.3336 13.8708 28.3336 17.0002V19.2668C28.338 20.497 28.7464 21.6918 29.4963 22.6668H26.0669V13.6002C26.0669 13.0656 25.6939 12.6041 25.1716 12.4917L9.30488 9.09174C8.97008 9.0198 8.62035 9.10281 8.35417 9.31863ZM30.6003 19.2668V17.0002C30.6003 15.1225 32.1226 13.6002 34.0003 13.6002C35.8779 13.6002 37.4003 15.1225 37.4003 17.0002V19.2668C37.4003 21.1445 35.8779 22.6668 34.0003 22.6668C32.1226 22.6668 30.6003 21.1445 30.6003 19.2668ZM10.2003 11.6019L23.8003 14.5171V18.284L10.2003 20.227V11.6019Z" fill="#E4E8FF"></path><path d="M0.857422 11.3007L1.40638 9.10156L5.93971 10.2332L5.39076 12.4324L0.857422 11.3007Z" fill="#E4E8FF"></path><path d="M0.858398 20.4325L5.39173 19.3008L5.94069 21.4999L1.40736 22.6316L0.858398 20.4325Z" fill="#E4E8FF"></path><path d="M0 14.7324H4.53333V16.9991H0V14.7324Z" fill="#E4E8FF"></path><path d="M62.3331 0H48.7331C45.6048 0.0038737 43.0703 2.53838 43.0664 5.66667V17C43.0703 20.1283 45.6048 22.6628 48.7331 22.6667H49.6168L48.7558 26.9731C48.6672 27.4169 48.8509 27.8701 49.2228 28.1275C49.5947 28.3842 50.0833 28.3959 50.4668 28.1568L59.2585 22.6667H62.3331C65.4614 22.6628 67.9959 20.1283 67.9997 17V5.66667C67.9959 2.53838 65.4614 0.0038737 62.3331 0ZM65.7331 17C65.7331 18.8776 64.2107 20.4 62.3331 20.4H58.9331C58.7206 20.4 58.5125 20.4598 58.3326 20.5721L51.4928 24.847L52.1104 21.7602C52.1785 21.4265 52.0932 21.0801 51.878 20.8167C51.6627 20.5527 51.3401 20.4 50.9997 20.4H48.7331C46.8554 20.4 45.3331 18.8776 45.3331 17V5.66667C45.3331 3.78903 46.8554 2.26667 48.7331 2.26667H62.3331C64.2107 2.26667 65.7331 3.78903 65.7331 5.66667V17Z" fill="#E4E8FF"></path><path d="M62.3338 7.93236H58.407L56.4801 5.03649C56.2576 4.73932 55.9084 4.56445 55.5371 4.56445C55.1658 4.56445 54.8166 4.73932 54.5942 5.03649L52.6606 7.93236H48.7338C48.2756 7.93236 47.8622 8.2085 47.6868 8.63184C47.5114 9.05518 47.6088 9.54271 47.9325 9.86699L50.8793 12.8138L49.9009 16.7234C49.7902 17.154 49.9413 17.6094 50.2872 17.8883C50.633 18.1672 51.11 18.2181 51.5068 18.0189L55.5338 15.9996L59.5608 18.0189C59.9565 18.217 60.4318 18.1661 60.7771 17.8889C61.1219 17.6116 61.2741 17.159 61.1667 16.7295L60.1883 12.8193L63.1351 9.87253C63.4633 9.5488 63.5629 9.05905 63.3869 8.63294C63.2109 8.20739 62.7948 7.93014 62.3338 7.93236ZM58.1325 11.6644C57.8508 11.9461 57.7379 12.355 57.8342 12.7413L58.3705 14.8829L56.0401 13.718C55.7214 13.5586 55.3462 13.5586 55.0275 13.718L52.7005 14.8829L53.2367 12.7413C53.333 12.355 53.2201 11.9461 52.9384 11.6644L51.4697 10.199H53.2671C53.6462 10.199 53.9998 10.0098 54.2101 9.69489L55.5338 7.70547L56.8575 9.69102C57.0672 10.0076 57.4208 10.1985 57.8005 10.199H59.5979L58.1325 11.6644Z" fill="#E4E8FF"></path></g><defs><clipPath id="clip0_120_254"><rect width="68" height="68" fill="white"></rect></clipPath></defs></svg> 