<?xml version="1.0" encoding="UTF-8"?> <svg xmlns="http://www.w3.org/2000/svg" width="79" height="79" viewBox="0 0 79 79" fill="none"><path d="M29.3101 50.709C27.452 50.709 25.8936 52.2075 25.8936 54.1255C25.8936 55.9836 27.392 57.5421 29.3101 57.5421C31.1682 57.5421 32.7266 56.0436 32.7266 54.1255C32.7266 52.2674 31.1682 50.709 29.3101 50.709ZM29.3101 55.2044C28.7706 55.2044 28.2911 54.7249 28.2911 54.1855C28.2911 53.5861 28.7706 53.1665 29.3101 53.1665C29.9095 53.1665 30.3291 53.646 30.3291 54.1855C30.3291 54.7249 29.8495 55.2044 29.3101 55.2044Z" fill="#E4E8FF"></path><path d="M24.0964 46.0938H23.9766C24.0365 46.1537 24.0964 46.1537 24.1564 46.2136C24.0964 46.2136 24.0964 46.1537 24.0964 46.0938Z" fill="#E4E8FF"></path><path d="M64.9746 22.8365C64.8548 22.4769 64.615 22.1772 64.2554 22.0573C63.8957 21.9374 63.5361 21.9374 63.1765 22.1173C61.678 22.9564 59.4003 24.335 57.3623 25.354C56.2834 24.335 55.1446 23.4359 53.8859 22.6567C54.1856 20.9185 54.2455 19.0004 53.2265 17.2622C51.6681 14.5649 48.851 14.0854 46.3934 13.6059C44.2956 13.2462 42.3176 12.8866 41.1787 11.3282C39.9799 9.70982 39.7402 7.13243 40.5793 3.77583C40.6393 3.41619 40.5793 3.05655 40.3396 2.75686C40.0998 2.45716 39.7402 2.27734 39.3805 2.27734C38.2417 2.27734 32.4276 2.63698 29.4906 7.19237C28.5915 8.63091 27.6924 11.0884 27.8722 13.7857C27.9321 14.8047 28.1719 15.5239 28.2918 16.1233C28.4716 16.7227 28.5315 17.0224 28.4117 17.5019C28.052 18.9405 26.3737 20.1992 24.6355 20.3191C23.4966 20.439 21.6385 20.0793 21.0391 18.8206C20.7394 18.2212 20.7994 17.5619 20.9192 17.1423C21.0391 16.5429 20.7394 15.9435 20.14 15.7637C19.6006 15.5839 18.9412 15.8236 18.6416 16.3631C18.4018 16.9025 12.5877 28.291 18.0422 38.9602C17.8623 40.099 17.8024 41.2978 17.8024 42.4367C17.8024 44.9541 18.222 47.3517 18.9412 49.5695L8.27205 60.2386C7.19314 61.3176 6.59375 62.7561 6.59375 64.3145C6.59375 65.813 7.19314 67.3115 8.27205 68.3904L14.9853 75.1036C16.0642 76.1825 17.5027 76.7819 19.0611 76.7819C20.6195 76.7819 22.0581 76.1825 23.137 75.1036L33.6264 64.6142C36.0239 65.4534 38.6013 65.8729 41.2986 65.8729C54.2455 65.8729 64.7349 55.3836 64.7349 42.4367C64.7349 40.2789 64.4352 38.121 63.8957 36.143C65.9337 32.1871 65.8737 26.0732 64.9746 22.8365ZM19.5406 20.7386C20.7994 22.2371 23.0171 22.8365 24.9352 22.6567C27.6924 22.4169 30.2098 20.439 30.8692 18.0414C31.1689 16.9625 30.9291 16.1833 30.7493 15.4041C30.6294 14.9245 30.4496 14.3851 30.3897 13.6059C30.2698 11.4481 30.9291 9.53 31.6484 8.45109C33.2667 5.93364 36.2038 5.03455 38.0019 4.79479C37.4625 8.15139 37.8821 10.7887 39.3206 12.7068C41.0588 15.0444 43.6962 15.5239 46.0338 15.9435C48.2516 16.3631 50.1696 16.6628 51.1886 18.461C51.728 19.36 51.788 20.3191 51.6681 21.398C48.5513 19.8396 45.0748 19.0004 41.3585 19.0004C31.049 19.0004 22.2379 25.6537 19.1211 34.9443C17.3828 29.4898 18.4617 24.0952 19.5406 20.7386ZM35.005 59.9389H34.945L21.5186 73.3654C20.9192 74.0247 20.0801 74.3244 19.181 74.3244C18.2819 74.3244 17.4428 73.9647 16.8434 73.3654L10.1302 66.6522C9.53078 66.0528 9.17114 65.2136 9.17114 64.3145C9.17114 63.4154 9.53078 62.5763 10.1302 61.9769L23.5566 48.5505H35.005V59.9389ZM33.6863 42.4966C33.3267 42.8563 33.2068 43.4556 33.5065 43.9352L34.7053 46.093H24.096V46.1529C24.096 46.1529 24.096 46.1529 24.156 46.2128C24.156 46.2128 24.096 46.2128 24.096 46.1529C24.0361 46.093 24.0361 46.093 23.9761 46.093H24.096C23.8563 44.9541 23.7364 43.7553 23.7364 42.5566C23.7364 42.4966 23.7364 42.4367 23.7364 42.4367C23.7364 32.7265 31.6484 24.8145 41.3585 24.8145C45.0148 24.8145 48.4913 25.9534 51.3085 27.8714C51.9079 28.291 52.4473 28.7106 52.9268 29.1301C55.5642 31.4078 57.4822 34.4647 58.3813 37.9412C58.6211 38.7204 58.7409 39.4997 58.8608 40.3388C58.9807 41.0581 58.9807 41.7174 58.9807 42.4367C58.9807 52.1468 51.0687 60.0588 41.3585 60.0588C39.9799 60.0588 38.6613 59.879 37.3426 59.5793V50.7083L40.2796 55.983C40.5194 56.3426 40.879 56.5823 41.2986 56.5823C41.7182 56.5823 42.1378 56.3426 42.3775 55.983L49.1507 43.9352C49.2705 43.7553 49.3305 43.5156 49.2705 43.3358C49.2705 43.0361 49.1507 42.7364 48.9109 42.4966C48.5513 42.137 47.9519 42.0171 47.4724 42.2569L41.2387 45.5535L40.5793 45.1939L35.0649 42.2569C34.6453 42.0171 34.1059 42.137 33.6863 42.4966ZM37.6423 46.3327L38.3016 46.6924L40.7592 48.011C41.1188 48.1908 41.5384 48.1908 41.898 48.011L45.0148 46.3327L41.2986 52.9261L39.0808 49.03L37.8821 46.9321L37.6423 46.3327ZM41.3585 63.4754C39.3805 63.4754 37.4625 63.1757 35.6044 62.6962L36.3836 61.9169C37.942 62.3365 39.6203 62.5163 41.2986 62.5163C52.3874 62.5163 61.3183 53.5254 61.3183 42.4966C61.3183 41.4177 61.2584 40.3987 61.0786 39.3198C60.9587 38.4207 60.7189 37.5816 60.4792 36.7424C59.5801 33.6855 57.9617 30.9883 55.8639 28.7106C55.2645 28.0512 54.5452 27.4519 53.8859 26.8525C53.706 26.6726 53.4663 26.5528 53.2865 26.3729C52.5672 25.8335 51.788 25.354 51.0088 24.9344C48.1317 23.316 44.835 22.417 41.2986 22.417C31.1089 22.417 22.7174 30.0292 21.3988 39.8593C21.2789 40.6984 21.2189 41.5975 21.2189 42.4966V43.5755C21.2789 44.7144 21.4587 45.7933 21.6985 46.8722L20.8593 47.7113C20.4397 46.033 20.2 44.2948 20.2 42.4966V42.3767C20.2 41.0581 20.3198 39.7993 20.5596 38.6006C22.5376 28.7705 31.1089 21.398 41.3585 21.398C44.9549 21.398 48.3115 22.2971 51.2485 23.8555C52.0277 24.2751 52.747 24.6946 53.4063 25.1742C53.9458 25.5937 54.4853 26.0133 55.0247 26.4329C55.684 26.9723 56.2834 27.5717 56.8828 28.2311C58.8608 30.3889 60.3593 32.9663 61.3183 35.7834C61.618 36.6825 61.8578 37.6415 62.0376 38.5406C62.2774 39.7993 62.3972 41.0581 62.3972 42.3767C62.3373 54.005 52.9268 63.4754 41.3585 63.4754ZM62.637 32.6066C61.7379 30.6286 60.5391 28.8305 59.1605 27.1522C60.2994 26.5528 61.5581 25.8335 62.9966 24.9943C63.2963 27.2121 63.2364 30.1491 62.637 32.6066Z" fill="#E4E8FF"></path><path d="M24.1564 46.1517C24.0964 46.1517 24.0964 46.1517 24.1564 46.1517C24.0964 46.2117 24.1564 46.2117 24.1564 46.1517C24.1564 46.2117 24.1564 46.2117 24.1564 46.1517ZM24.0964 46.0918H23.9766C24.0365 46.1517 24.0365 46.1517 24.0964 46.1517V46.0918Z" fill="#E4E8FF"></path><path d="M24.0964 46.0918H23.9766C24.0365 46.0918 24.0365 46.1517 24.0964 46.0918C24.0365 46.1517 24.0964 46.1517 24.0964 46.1517V46.0918ZM24.1564 46.1517C24.0964 46.1517 24.0964 46.1517 24.1564 46.1517C24.0964 46.2117 24.1564 46.2117 24.1564 46.1517C24.1564 46.2117 24.1564 46.2117 24.1564 46.1517Z" fill="#E4E8FF"></path><path d="M24.0964 46.0918H23.9766C24.0365 46.0918 24.0365 46.1517 24.0964 46.0918C24.0365 46.1517 24.0964 46.1517 24.0964 46.1517V46.0918ZM24.1564 46.1517C24.0964 46.1517 24.0964 46.1517 24.1564 46.1517C24.0964 46.2117 24.1564 46.2117 24.1564 46.1517C24.1564 46.2117 24.1564 46.2117 24.1564 46.1517Z" fill="#E4E8FF"></path><path d="M49.091 37.7008L42.3178 28.7699C41.8383 28.1705 40.8793 28.1705 40.3998 28.7699L33.6266 37.7008C33.3869 38.0005 33.3269 38.3601 33.3869 38.7198C33.4468 39.0794 33.6866 39.3791 33.9862 39.499L40.7594 42.9155C40.9392 42.9755 41.119 43.0354 41.2988 43.0354C41.4787 43.0354 41.6585 42.9755 41.8383 42.9155L48.6114 39.499C48.9111 39.3192 49.1509 39.0195 49.2108 38.7198C49.3307 38.3601 49.2708 38.0005 49.091 37.7008ZM41.3588 40.518L36.3838 38.0005L41.2988 31.4671L46.2738 38.0005L41.3588 40.518Z" fill="#E4E8FF"></path><path d="M24.0964 46.0938H23.9766C24.0365 46.1537 24.0964 46.1537 24.1564 46.2136C24.0964 46.2136 24.0964 46.1537 24.0964 46.0938Z" fill="#E4E8FF"></path><path d="M25.5947 67.732C25.355 67.9718 25.0553 68.0917 24.7556 68.0917C24.4559 68.0917 24.1562 67.9718 23.9164 67.732L23.6167 67.4323C23.1372 67.6721 22.6577 67.8519 22.1182 67.8519C21.9984 67.8519 21.9384 67.8519 21.8185 67.8519C20.9195 67.8519 20.1402 67.5522 19.5408 66.9528C19.0613 66.4733 19.0613 65.754 19.5408 65.2745C20.0204 64.795 20.7396 64.795 21.2191 65.2745C21.4589 65.5143 21.7586 65.5143 21.8785 65.5143C22.2381 65.5143 22.5978 65.3345 22.8375 65.0348C23.0773 64.7351 23.2571 64.4354 23.317 64.0757C23.317 63.8959 23.317 63.5962 23.0773 63.4164C23.0773 63.4164 23.0173 63.4164 23.0173 63.3565C22.8375 63.2366 22.358 63.2366 21.1592 63.836C20.2002 64.4354 19.3011 64.6751 18.5219 64.6751C18.1622 64.6751 17.8026 64.6152 17.443 64.4953C17.3231 64.4354 17.2632 64.4354 17.1433 64.3754C16.9035 64.2556 16.6638 64.0757 16.424 63.8959C15.3451 62.817 15.2252 61.1987 15.9445 59.8201L15.6448 59.5204C15.1653 59.0408 15.1653 58.3216 15.6448 57.8421C16.1243 57.3625 16.8436 57.3625 17.3231 57.8421L17.6228 58.1418C18.1023 57.902 18.5818 57.7222 19.1213 57.7222C20.0803 57.6622 21.0393 57.9619 21.6987 58.6213C22.1782 59.1008 22.1782 59.8201 21.6987 60.2996C21.2191 60.7791 20.4999 60.7791 20.0204 60.2996C19.7806 60.0598 19.4809 60.0598 19.361 60.0598C19.0014 60.0598 18.6418 60.2396 18.402 60.5393C17.8625 61.0788 17.8026 61.7981 18.1622 62.2176C18.1622 62.2176 18.1622 62.2176 18.2222 62.2776H18.2821C18.2821 62.2776 18.3421 62.2776 18.3421 62.3375C18.5818 62.3974 19.1213 62.2776 20.0803 61.7381C21.4589 60.899 22.7176 60.6592 23.7366 61.0788H23.7965C23.9164 61.1387 23.9764 61.1387 24.0962 61.1987C24.1562 61.1987 24.1562 61.2586 24.2161 61.2586C24.2761 61.2586 24.336 61.3185 24.336 61.3185C24.5158 61.4384 24.6357 61.5583 24.8155 61.6782C25.4748 62.3375 25.7745 63.2366 25.7146 64.2556C25.6547 64.795 25.5348 65.2745 25.295 65.754L25.5947 66.0537C26.0742 66.4733 26.0742 67.2525 25.5947 67.732Z" fill="#E4E8FF"></path><path d="M27.2129 56.7031C27.3328 56.7631 27.4526 56.8829 27.5725 56.9429L27.2129 56.7031Z" fill="#E4E8FF"></path></svg> 