<?xml version="1.0" encoding="UTF-8"?> <svg xmlns="http://www.w3.org/2000/svg" width="70" height="70" viewBox="0 0 70 70" fill="none"><g clip-path="url(#clip0_120_268)"><path d="M53.0523 54.2619C50.8683 51.3217 47.3777 49.5664 43.7149 49.5664H30.8272C28.7309 49.5664 27.0254 51.2719 27.0254 53.3682C27.0254 53.8643 27.122 54.3379 27.2955 54.7729L16.5819 50.8297C15.1016 50.2849 13.4498 50.8167 12.5657 52.1229C12.038 52.9024 11.8559 53.8386 12.053 54.7589C12.2501 55.6793 12.7998 56.4587 13.6005 56.9536L24.7841 63.8639C25.1636 64.0985 25.5993 64.2411 26.044 64.2767L39.3535 65.3415L43.2309 69.6595C43.4334 69.8852 43.7134 69.9999 43.9946 69.9999C44.2386 69.9999 44.4836 69.9134 44.6796 69.7375C45.1011 69.3589 45.136 68.7102 44.7574 68.2888L40.6066 63.6664C40.4311 63.4708 40.1872 63.3502 39.9251 63.3292L26.2075 62.2319C26.0857 62.2221 25.9666 62.1832 25.8628 62.1189L14.679 55.2085C14.3583 55.0103 14.1381 54.6982 14.0592 54.3295C13.9802 53.9607 14.0531 53.5858 14.2646 53.2735C14.6189 52.7503 15.2807 52.5371 15.8734 52.7555L27.697 57.1073C27.8105 57.149 27.9305 57.1704 28.0514 57.1704H36.5415C37.1082 57.1704 37.5673 56.711 37.5673 56.1445C37.5673 55.578 37.1082 55.1187 36.5415 55.1187H30.8259C29.8616 55.118 29.0772 54.3331 29.0772 53.3686C29.0772 52.4035 29.8623 51.6185 30.8273 51.6185H43.715C46.7317 51.6185 49.6066 53.0642 51.4055 55.4858L53.481 58.2795C53.6824 58.5505 53.9917 58.6937 54.3052 58.6937C54.5179 58.6937 54.7324 58.6277 54.9162 58.4912C55.371 58.1534 55.4658 57.5108 55.128 57.056L53.0523 54.2619Z" fill="#E4E8FF"></path><path d="M63.5273 68.363L57.7351 60.5665C57.3973 60.1116 56.7547 60.017 56.2999 60.3547C55.8451 60.6926 55.7503 61.3352 56.0882 61.79L61.8803 69.5865C62.0817 69.8575 62.3911 70.0007 62.7046 70.0007C62.9173 70.0007 63.1317 69.9347 63.3156 69.7982C63.7703 69.4604 63.865 68.8178 63.5273 68.363Z" fill="#E4E8FF"></path><path d="M19.3455 40.9291C23.7524 45.0631 29.4989 47.3398 35.5264 47.3398C48.5783 47.3398 59.1967 36.7213 59.1967 23.6696C59.1967 22.396 59.0922 21.1098 58.8864 19.8472C58.7951 19.2881 58.268 18.9086 57.7088 18.9999C57.1497 19.0911 56.7703 19.6182 56.8615 20.1774C57.0497 21.3313 57.145 22.5061 57.145 23.6696C57.145 35.59 47.447 45.2881 35.5264 45.2881C30.0225 45.2881 24.7744 43.2086 20.7491 39.4327C20.3359 39.0452 19.6865 39.066 19.2991 39.4791C18.9115 39.8922 18.9323 40.5414 19.3455 40.9291Z" fill="#E4E8FF"></path><path d="M13.0154 27.1574C13.0524 27.1574 13.0898 27.1554 13.1274 27.1514C13.6905 27.0903 14.0976 26.5841 14.0364 26.0208C13.9512 25.2369 13.9081 24.4461 13.9081 23.67C13.9081 17.6335 16.4703 11.8242 20.9379 7.73155C21.3556 7.34884 21.384 6.69996 21.0013 6.2821C20.6185 5.86438 19.9698 5.83593 19.5519 6.21864C14.6614 10.699 11.8564 17.0597 11.8564 23.67C11.8564 24.5198 11.9038 25.3853 11.9968 26.2424C12.0538 26.7679 12.4983 27.1574 13.0154 27.1574Z" fill="#E4E8FF"></path><path d="M24.2764 5.2162C27.6593 3.14591 31.5494 2.05168 35.5259 2.05168C41.4216 2.05168 46.935 4.39238 51.0507 8.64278C51.2519 8.85055 51.5197 8.95505 51.7878 8.95505C52.0448 8.95505 52.3021 8.85903 52.5012 8.66617C52.9084 8.27211 52.9188 7.62255 52.5246 7.21563C48.0191 2.56255 41.9821 0 35.5259 0C31.1712 0 26.911 1.19859 23.2054 3.46625C22.7221 3.76197 22.57 4.39347 22.8659 4.87671C23.1617 5.36009 23.7931 5.51192 24.2764 5.2162Z" fill="#E4E8FF"></path><path d="M47.8858 35.2852C48.3212 35.6478 48.968 35.5892 49.3305 35.1537C52.0129 31.9342 53.4902 27.8562 53.4902 23.6709C53.4902 13.7656 45.4316 5.70703 35.5264 5.70703C25.6211 5.70703 17.5625 13.7656 17.5625 23.6709C17.5625 33.5761 25.6211 41.6347 35.5264 41.6347C39.2586 41.6347 42.8403 40.4955 45.8843 38.3403C46.3468 38.0128 46.4562 37.3726 46.1288 36.9103C45.8013 36.4479 45.1615 36.3382 44.6987 36.6658C42.0034 38.5743 38.8315 39.5832 35.5264 39.5832C26.7524 39.5832 19.6142 32.445 19.6142 23.671C19.6142 14.8971 26.7524 7.75871 35.5265 7.75871C44.3006 7.75871 51.4387 14.8969 51.4387 23.6709C51.4387 27.3773 50.1302 30.9888 47.7544 33.8404C47.3918 34.2756 47.4506 34.9226 47.8858 35.2852Z" fill="#E4E8FF"></path><path d="M24.5889 19.3051V28.0363C24.5889 28.6028 25.048 29.0621 25.6147 29.0621C26.1814 29.0621 26.6406 28.6028 26.6406 28.0363V19.3051C26.6406 18.7386 26.1814 18.2793 25.6147 18.2793C25.048 18.2793 24.5889 18.7386 24.5889 19.3051Z" fill="#E4E8FF"></path><path d="M33.3232 20.331C33.9926 20.331 34.6379 20.5279 35.1897 20.9008C35.6592 21.2181 36.2969 21.0946 36.614 20.6251C36.931 20.1555 36.8076 19.518 36.3381 19.2006C35.446 18.5979 34.4032 18.2793 33.3231 18.2793C30.3503 18.2793 27.9316 20.698 27.9316 23.6707C27.9316 26.6435 30.3503 29.0621 33.3231 29.0621C34.5093 29.0621 35.5737 28.6726 36.4013 27.9355C36.5636 27.7909 36.7176 27.632 36.8595 27.463C37.2234 27.0289 37.1667 26.3819 36.7325 26.0178C36.2983 25.6537 35.6514 25.7106 35.2873 26.1446C35.2094 26.2376 35.125 26.3246 35.0368 26.4034C34.5844 26.8062 34.008 27.0104 33.3232 27.0104C31.4816 27.0104 29.9835 25.5122 29.9835 23.6707C29.9835 21.8293 31.4817 20.331 33.3232 20.331Z" fill="#E4E8FF"></path><path d="M43.0467 18.2793C40.0739 18.2793 37.6553 20.698 37.6553 23.6707C37.6553 26.6435 40.0739 29.0621 43.0467 29.0621C46.0194 29.0621 48.4381 26.6435 48.4381 23.6707C48.4381 20.698 46.0196 18.2793 43.0467 18.2793ZM43.0467 27.0104C41.2051 27.0104 39.707 25.5122 39.707 23.6707C39.707 21.8293 41.2051 20.331 43.0467 20.331C44.8883 20.331 46.3864 21.8293 46.3864 23.6707C46.3864 25.5122 44.8883 27.0104 43.0467 27.0104Z" fill="#E4E8FF"></path><path d="M52.3604 11.9835C52.3572 12.5615 52.6948 13.0914 53.2208 13.3335C54.4532 13.901 55.3364 14.8091 55.9207 16.1096C56.1552 16.631 56.6567 16.9631 57.2297 16.9763C57.2416 16.9766 57.2535 16.9767 57.2653 16.9767C57.8248 16.9767 58.326 16.6701 58.579 16.17C59.206 14.9322 60.162 13.9985 61.5016 13.3156C62.0052 13.059 62.3136 12.5487 62.3064 11.9842C62.2993 11.418 61.9773 10.9144 61.4659 10.6696C60.1044 10.018 59.162 9.11962 58.585 7.92362C58.331 7.39661 57.8088 7.07422 57.2276 7.08421C56.6473 7.09337 56.1403 7.4293 55.9042 7.9611C55.3489 9.21208 54.4755 10.0901 53.2341 10.6452C52.7066 10.8811 52.3635 11.4064 52.3604 11.9835ZM57.2743 9.75099C57.8794 10.6484 58.6765 11.406 59.6574 12.0159C58.7009 12.6424 57.9099 13.4132 57.2928 14.3205C56.709 13.3685 55.9564 12.5922 55.043 11.9996C55.956 11.4234 56.7023 10.6714 57.2743 9.75099Z" fill="#E4E8FF"></path><path d="M12.9036 42.592C13.5391 42.592 14.1081 42.2439 14.3955 41.6764C15.3472 39.7975 16.7947 38.382 18.8208 37.3492C19.3926 37.0577 19.7427 36.4784 19.7348 35.8376C19.7267 35.1944 19.3607 34.6221 18.7795 34.3437C16.7139 33.3551 15.2815 31.9866 14.4003 30.1601C14.1152 29.569 13.5365 29.2051 12.8849 29.2051C12.8757 29.2051 12.8664 29.2051 12.8571 29.2052C12.1985 29.2156 11.6228 29.5972 11.3547 30.2011C10.5042 32.1174 9.16573 33.4626 7.26341 34.3132C6.65475 34.5854 6.27436 35.1678 6.27053 35.8331C6.26698 36.4998 6.64161 37.0874 7.24864 37.3669C9.13482 38.2355 10.4854 39.6227 11.3774 41.6078C11.6433 42.1993 12.2128 42.5762 12.8634 42.5912C12.8768 42.5918 12.8904 42.592 12.9036 42.592ZM8.79123 35.8484C10.575 34.896 11.953 33.5091 12.9008 31.7126C13.8905 33.438 15.3498 34.8312 17.2522 35.8669C15.4016 36.9344 13.9496 38.353 12.9224 40.0966C11.9492 38.2471 10.5637 36.8224 8.79123 35.8484Z" fill="#E4E8FF"></path></g><defs><clipPath id="clip0_120_268"><rect width="70" height="70" fill="white"></rect></clipPath></defs></svg> 