<?xml version="1.0" encoding="UTF-8"?> <svg xmlns="http://www.w3.org/2000/svg" width="62" height="62" viewBox="0 0 62 62" fill="none"><g clip-path="url(#clip0_120_135)"><path d="M45.639 61.0918H3.3543C2.0041 61.0918 0.908203 59.9959 0.908203 58.6457V3.3543C0.908203 2.0041 2.0041 0.908203 3.3543 0.908203H49.3481" stroke="#E4E8FF" stroke-width="2" stroke-miterlimit="10" stroke-linecap="round" stroke-linejoin="round"></path><path d="M53.5861 0.908203H58.6453C59.9955 0.908203 61.0914 2.0041 61.0914 3.3543V58.6457C61.0914 59.9959 59.9955 61.0918 58.6453 61.0918H49.877" stroke="#E4E8FF" stroke-width="2" stroke-miterlimit="10" stroke-linecap="round" stroke-linejoin="round"></path><path d="M8.20773 12.6523H0.908203" stroke="#E4E8FF" stroke-width="2" stroke-miterlimit="10" stroke-linecap="round" stroke-linejoin="round"></path><path d="M61.0921 12.6523H12.4463" stroke="#E4E8FF" stroke-width="2" stroke-miterlimit="10" stroke-linecap="round" stroke-linejoin="round"></path><path d="M6.7795 8.73674C7.86046 8.73674 8.73674 7.86046 8.73674 6.7795C8.73674 5.69855 7.86046 4.82227 6.7795 4.82227C5.69855 4.82227 4.82227 5.69855 4.82227 6.7795C4.82227 7.86046 5.69855 8.73674 6.7795 8.73674Z" stroke="#E4E8FF" stroke-width="2" stroke-miterlimit="10" stroke-linecap="round" stroke-linejoin="round"></path><path d="M14.6086 8.73674C15.6896 8.73674 16.5658 7.86046 16.5658 6.7795C16.5658 5.69855 15.6896 4.82227 14.6086 4.82227C13.5277 4.82227 12.6514 5.69855 12.6514 6.7795C12.6514 7.86046 13.5277 8.73674 14.6086 8.73674Z" stroke="#E4E8FF" stroke-width="2" stroke-miterlimit="10" stroke-linecap="round" stroke-linejoin="round"></path><path d="M22.4377 8.73674C23.5187 8.73674 24.3949 7.86046 24.3949 6.7795C24.3949 5.69855 23.5187 4.82227 22.4377 4.82227C21.3568 4.82227 20.4805 5.69855 20.4805 6.7795C20.4805 7.86046 21.3568 8.73674 22.4377 8.73674Z" stroke="#E4E8FF" stroke-width="2" stroke-miterlimit="10" stroke-linecap="round" stroke-linejoin="round"></path><path d="M14.1189 27.5755H6.53477C5.58891 27.5755 4.82227 26.8088 4.82227 25.863V18.2789C4.82227 17.3331 5.58903 16.5664 6.53477 16.5664H14.1189C15.0647 16.5664 15.8314 17.3332 15.8314 18.2789V25.863C15.8314 26.8089 15.0646 27.5755 14.1189 27.5755Z" stroke="#E4E8FF" stroke-width="2" stroke-miterlimit="10" stroke-linecap="round" stroke-linejoin="round"></path><path d="M14.1189 42.2533H6.53477C5.58891 42.2533 4.82227 41.4865 4.82227 40.5408V32.9566C4.82227 32.0108 5.58903 31.2441 6.53477 31.2441H14.1189C15.0647 31.2441 15.8314 32.0109 15.8314 32.9566V40.5408C15.8314 41.4865 15.0646 42.2533 14.1189 42.2533Z" stroke="#E4E8FF" stroke-width="2" stroke-miterlimit="10" stroke-linecap="round" stroke-linejoin="round"></path><path d="M14.1189 56.9329H6.53477C5.58891 56.9329 4.82227 56.1662 4.82227 55.2204V47.6363C4.82227 46.6905 5.58903 45.9238 6.53477 45.9238H14.1189C15.0647 45.9238 15.8314 46.6906 15.8314 47.6363V55.2204C15.8314 56.1663 15.0646 56.9329 14.1189 56.9329Z" stroke="#E4E8FF" stroke-width="2" stroke-miterlimit="10" stroke-linecap="round" stroke-linejoin="round"></path><path d="M40.2966 27.5755H32.7125C31.7666 27.5755 31 26.8088 31 25.863V18.2789C31 17.3331 31.7668 16.5664 32.7125 16.5664H40.2966C41.2425 16.5664 42.0091 17.3332 42.0091 18.2789V25.863C42.0092 26.8089 41.2425 27.5755 40.2966 27.5755Z" stroke="#E4E8FF" stroke-width="2" stroke-miterlimit="10" stroke-linecap="round" stroke-linejoin="round"></path><path d="M40.2966 42.2533H32.7125C31.7666 42.2533 31 41.4865 31 40.5408V32.9566C31 32.0108 31.7668 31.2441 32.7125 31.2441H40.2966C41.2425 31.2441 42.0091 32.0109 42.0091 32.9566V40.5408C42.0092 41.4865 41.2425 42.2533 40.2966 42.2533Z" stroke="#E4E8FF" stroke-width="2" stroke-miterlimit="10" stroke-linecap="round" stroke-linejoin="round"></path><path d="M40.2966 56.9329H32.7125C31.7666 56.9329 31 56.1662 31 55.2204V47.6363C31 46.6905 31.7668 45.9238 32.7125 45.9238H40.2966C41.2425 45.9238 42.0091 46.6906 42.0091 47.6363V55.2204C42.0092 56.1663 41.2425 56.9329 40.2966 56.9329Z" stroke="#E4E8FF" stroke-width="2" stroke-miterlimit="10" stroke-linecap="round" stroke-linejoin="round"></path><path d="M27.0856 20.1133H19.7461" stroke="#E4E8FF" stroke-width="2" stroke-miterlimit="10" stroke-linecap="round" stroke-linejoin="round"></path><path d="M19.7461 24.0273H23.4158" stroke="#E4E8FF" stroke-width="2" stroke-miterlimit="10" stroke-linecap="round" stroke-linejoin="round"></path><path d="M27.0856 34.793H19.7461" stroke="#E4E8FF" stroke-width="2" stroke-miterlimit="10" stroke-linecap="round" stroke-linejoin="round"></path><path d="M19.7461 38.707H23.4158" stroke="#E4E8FF" stroke-width="2" stroke-miterlimit="10" stroke-linecap="round" stroke-linejoin="round"></path><path d="M27.0856 49.4707H19.7461" stroke="#E4E8FF" stroke-width="2" stroke-miterlimit="10" stroke-linecap="round" stroke-linejoin="round"></path><path d="M19.7461 53.3848H23.4158" stroke="#E4E8FF" stroke-width="2" stroke-miterlimit="10" stroke-linecap="round" stroke-linejoin="round"></path><path d="M53.2633 20.1133H45.9238" stroke="#E4E8FF" stroke-width="2" stroke-miterlimit="10" stroke-linecap="round" stroke-linejoin="round"></path><path d="M45.9238 24.0273H49.5936" stroke="#E4E8FF" stroke-width="2" stroke-miterlimit="10" stroke-linecap="round" stroke-linejoin="round"></path><path d="M53.2633 34.793H45.9238" stroke="#E4E8FF" stroke-width="2" stroke-miterlimit="10" stroke-linecap="round" stroke-linejoin="round"></path><path d="M45.9238 38.707H49.5936" stroke="#E4E8FF" stroke-width="2" stroke-miterlimit="10" stroke-linecap="round" stroke-linejoin="round"></path><path d="M53.2633 49.4707H45.9238" stroke="#E4E8FF" stroke-width="2" stroke-miterlimit="10" stroke-linecap="round" stroke-linejoin="round"></path><path d="M45.9238 53.3848H49.5936" stroke="#E4E8FF" stroke-width="2" stroke-miterlimit="10" stroke-linecap="round" stroke-linejoin="round"></path></g><defs><clipPath id="clip0_120_135"><rect width="62" height="62" fill="white"></rect></clipPath></defs></svg> 