<?xml version="1.0" encoding="UTF-8"?> <svg xmlns="http://www.w3.org/2000/svg" width="66" height="66" viewBox="0 0 66 66" fill="none"><g clip-path="url(#clip0_120_124)"><path d="M6.6002 54.9997H20.9002V58.2997C17.8641 58.3034 15.4038 60.7637 15.4002 63.7997C15.4002 65.0147 16.3852 65.9997 17.6002 65.9997H44.0002C45.2152 65.9997 46.2002 65.0147 46.2002 63.7997C46.1966 60.7637 43.7363 58.3034 40.7002 58.2997V54.9997H55.0002C57.4302 54.9997 59.4002 53.0298 59.4002 50.5997V18.6997C59.4002 18.0922 58.9077 17.5997 58.3002 17.5997C57.6927 17.5997 57.2002 18.0922 57.2002 18.6997V43.9997H4.4002V18.6997C4.4002 17.4847 5.38517 16.4997 6.6002 16.4997H7.7002V40.6997C7.7002 41.3072 8.19268 41.7997 8.8002 41.7997C9.40771 41.7997 9.9002 41.3072 9.9002 40.6997V5.49972C9.9002 4.89221 10.3927 4.39972 11.0002 4.39972H49.1636L43.5393 8.28932L21.855 23.2856C21.7314 23.3643 21.6254 23.4676 21.5437 23.5892L14.5202 33.8852C14.0071 34.6372 14.0102 35.6274 14.5278 36.3762C15.0454 37.125 15.9708 37.4777 16.8555 37.2633L28.9665 34.3274C29.1074 34.2872 29.2411 34.2248 29.3625 34.1426L51.7002 18.6931V40.6997C51.7002 41.3072 52.1927 41.7997 52.8002 41.7997C53.4077 41.7997 53.9002 41.3072 53.9002 40.6997V17.1718L61.9016 11.6377C63.9003 10.2556 64.4002 7.51495 63.0181 5.51622L60.5167 1.89722C59.1325 -0.0981703 56.3947 -0.597502 54.3952 0.780722L52.3448 2.19972H11.0002C9.17766 2.19972 7.7002 3.67718 7.7002 5.49972V14.2997H6.6002C4.17014 14.2997 2.2002 16.2697 2.2002 18.6997V50.5997C2.2002 53.0298 4.17014 54.9997 6.6002 54.9997ZM50.6992 16.7109L45.6942 9.47292L48.4079 7.59632L53.414 14.8343L50.6992 16.7109ZM43.8902 10.7247L48.8963 17.9627L28.9874 31.7281L23.9802 24.489L43.8902 10.7247ZM22.3104 33.6773L19.8002 30.0484L22.4567 26.1533L26.8919 32.5663L22.3104 33.6773ZM16.3385 35.1249L18.4725 31.9954L20.0202 34.2328L16.3385 35.1249ZM55.647 2.59022C56.6464 1.89967 58.0163 2.14983 58.7072 3.14902L61.2097 6.76692C61.8981 7.76728 61.6489 9.13588 60.652 9.82932L55.2202 13.5825L50.2141 6.34452L55.647 2.59022ZM44.0002 63.7997H17.6002C17.6002 61.9772 19.0777 60.4997 20.9002 60.4997H40.7002C42.5227 60.4997 44.0002 61.9772 44.0002 63.7997ZM38.5002 58.2997H23.1002V54.9997H38.5002V58.2997ZM57.2002 46.1997V50.5997C57.2002 51.8147 56.2152 52.7997 55.0002 52.7997H6.6002C5.38517 52.7997 4.4002 51.8147 4.4002 50.5997V46.1997H57.2002Z" fill="#E4E8FF"></path><path d="M29.7006 50.6004H33.0006C33.6081 50.6004 34.1006 50.1079 34.1006 49.5004C34.1006 48.8929 33.6081 48.4004 33.0006 48.4004H29.7006C29.0931 48.4004 28.6006 48.8929 28.6006 49.5004C28.6006 50.1079 29.0931 50.6004 29.7006 50.6004Z" fill="#E4E8FF"></path><path d="M14.3002 9.89922H37.0042C37.6117 9.89922 38.1042 9.40673 38.1042 8.79922C38.1042 8.19171 37.6117 7.69922 37.0042 7.69922H14.3002C13.6927 7.69922 13.2002 8.19171 13.2002 8.79922C13.2002 9.40673 13.6927 9.89922 14.3002 9.89922Z" fill="#E4E8FF"></path><path d="M14.3002 15.3992H29.0512C29.6587 15.3992 30.1512 14.9067 30.1512 14.2992C30.1512 13.6917 29.6587 13.1992 29.0512 13.1992H14.3002C13.6927 13.1992 13.2002 13.6917 13.2002 14.2992C13.2002 14.9067 13.6927 15.3992 14.3002 15.3992Z" fill="#E4E8FF"></path><path d="M14.3002 20.8992H21.0982C21.7057 20.8992 22.1982 20.4067 22.1982 19.7992C22.1982 19.1917 21.7057 18.6992 21.0982 18.6992H14.3002C13.6927 18.6992 13.2002 19.1917 13.2002 19.7992C13.2002 20.4067 13.6927 20.8992 14.3002 20.8992Z" fill="#E4E8FF"></path><path d="M47.3004 35.1992H32.0434C31.4358 35.1992 30.9434 35.6917 30.9434 36.2992C30.9434 36.9067 31.4358 37.3992 32.0434 37.3992H47.3004C47.9079 37.3992 48.4004 36.9067 48.4004 36.2992C48.4004 35.6917 47.9079 35.1992 47.3004 35.1992Z" fill="#E4E8FF"></path><path d="M47.3005 29.6992H39.9965C39.389 29.6992 38.8965 30.1917 38.8965 30.7992C38.8965 31.4067 39.389 31.8992 39.9965 31.8992H47.3005C47.908 31.8992 48.4005 31.4067 48.4005 30.7992C48.4005 30.1917 47.908 29.6992 47.3005 29.6992Z" fill="#E4E8FF"></path></g><defs><clipPath id="clip0_120_124"><rect width="66" height="66" fill="white"></rect></clipPath></defs></svg> 