<?xml version="1.0" encoding="UTF-8"?> <svg xmlns="http://www.w3.org/2000/svg" width="75" height="61" viewBox="0 0 75 61" fill="none"><path d="M7.90222 43.0312H2.04562C1.3529 43.0312 0.786133 43.598 0.786133 44.2907V59.4675C0.786133 60.1602 1.3529 60.727 2.04562 60.727H7.90222C8.59493 60.727 9.1617 60.1602 9.1617 59.5305V44.2907C9.1617 43.598 8.59493 43.0312 7.90222 43.0312ZM3.3051 45.5502H6.64273V58.208H3.3051V45.5502Z" fill="#E4E8FF"></path><path d="M13.7587 39.252H7.90206C7.20935 39.252 6.64258 39.8187 6.64258 40.5114V59.4667C6.64258 60.1594 7.20935 60.7262 7.90206 60.7262H13.7587C14.4514 60.7262 15.0181 60.1594 15.0181 59.4667V40.5114C15.0181 39.8187 14.4514 39.252 13.7587 39.252ZM9.16155 41.7709H12.4992V58.2072H9.16155V41.7709Z" fill="#E4E8FF"></path><path d="M19.6151 34.7812H13.7585C13.0658 34.7812 12.499 35.348 12.499 36.0407V59.4671C12.499 60.1599 13.0658 60.7266 13.7585 60.7266H19.6151C20.3078 60.7266 20.8746 60.1599 20.8746 59.4671V36.0407C20.8746 35.348 20.3078 34.7812 19.6151 34.7812ZM15.018 37.3002H18.3556V58.2077H15.018V37.3002Z" fill="#E4E8FF"></path><path d="M25.4716 40.0703H19.615C18.9222 40.0703 18.3555 40.6371 18.3555 41.3298V59.4664C18.3555 60.1591 18.9222 60.7259 19.615 60.7259H25.5345C26.2272 60.6629 26.731 60.1591 26.731 59.4664V41.3298C26.731 40.6371 26.1643 40.0703 25.4716 40.0703ZM24.2121 58.2069H20.8744V42.5893H24.2121V58.2069Z" fill="#E4E8FF"></path><path d="M31.3915 34.2148H25.5349C24.8422 34.2148 24.2754 34.7816 24.2754 35.4743V59.4675C24.2754 60.1602 24.7792 60.664 25.4719 60.727H31.3915C32.0842 60.727 32.651 60.1602 32.651 59.5305V35.4743C32.651 34.7816 32.0842 34.2148 31.3915 34.2148ZM30.069 58.208H26.7314V36.7338H30.069V58.208Z" fill="#E4E8FF"></path><path d="M37.2479 25.084H31.3913C30.6986 25.084 30.1318 25.6508 30.1318 26.3435V59.4679C30.1318 60.1606 30.6986 60.7274 31.3913 60.7274H37.2479C37.9406 60.7274 38.5074 60.1606 38.5074 59.5309V26.3435C38.5074 25.6508 37.9406 25.084 37.2479 25.084ZM32.6508 27.603H35.9884V58.2084H32.6508V27.603Z" fill="#E4E8FF"></path><path d="M43.3563 39.0626C43.3563 40.8889 43.7341 42.6522 44.3639 44.2265V33.8987C43.7341 35.4731 43.3563 37.2364 43.3563 39.0626ZM43.1044 17.7773H37.2478C36.555 17.7773 35.9883 18.3441 35.9883 19.0368V59.4663C35.9883 60.159 36.555 60.7258 37.2478 60.7258H43.1044C43.7971 60.7258 44.3639 60.159 44.3639 59.4663V46.4306C43.1044 44.2895 42.3487 41.7705 42.3487 39.0626C42.3487 36.3547 43.1044 33.8358 44.3639 31.6317V19.0368C44.3639 18.3441 43.7971 17.7773 43.1044 17.7773ZM41.8449 58.2068H38.5072V20.2963H41.8449V58.2068Z" fill="#E4E8FF"></path><path d="M48.9618 4.42773H43.1052C42.4125 4.42773 41.8457 4.9945 41.8457 5.68722V59.4672C41.8457 60.1599 42.4125 60.7267 43.1052 60.7267H48.9618C49.6545 60.7267 50.2213 60.1599 50.2213 59.4672V51.9733C49.3396 51.5324 48.458 50.9657 47.7023 50.3359V58.2077H44.3647V46.4315C43.1052 44.2904 42.3495 41.7714 42.3495 39.0635C42.3495 36.3557 43.1052 33.8367 44.3647 31.6326V6.9467H47.7023V27.7282C48.458 27.0984 49.3396 26.5317 50.2213 26.0279V5.68722C50.2213 4.9945 49.6545 4.42773 48.9618 4.42773ZM47.7023 29.0506V32.9551C48.395 31.8845 49.2137 31.0028 50.2213 30.2472V27.2244C49.3396 27.7282 48.458 28.3579 47.7023 29.0506ZM47.7023 45.172V49.0765C48.458 49.7692 49.3396 50.3989 50.2213 50.9027V47.8799C49.2137 47.1242 48.395 46.1796 47.7023 45.172ZM43.3571 39.0635C43.3571 40.8898 43.7349 42.6531 44.3647 44.2274V33.8997C43.7349 35.474 43.3571 37.2373 43.3571 39.0635Z" fill="#E4E8FF"></path><path d="M47.7021 29.0505V32.9549C48.3949 31.8844 49.2135 31.0027 50.2211 30.247V27.2243C49.3395 27.7281 48.4578 28.3578 47.7021 29.0505ZM47.7021 45.1719V49.0763C48.4578 49.769 49.3395 50.3988 50.2211 50.9026V47.8798C49.2135 47.1241 48.3949 46.1795 47.7021 45.1719ZM53.5588 53.2326V58.2076H50.2211V51.9731C49.3395 51.5323 48.4578 50.9655 47.7021 50.3358V59.4671C47.7021 60.1598 48.2689 60.7265 48.9616 60.7265H54.8182C55.511 60.7265 56.0777 60.1598 56.0777 59.4671V53.6734C55.1961 53.6105 54.3774 53.4845 53.5588 53.2326ZM53.5588 25.8388V28.4838C54.3774 28.2319 55.1961 28.0429 56.0777 27.98V25.461C55.1961 25.461 54.3774 25.6499 53.5588 25.8388ZM55.6369 33.0179V31.9473C55.6369 31.4435 55.1961 31.0027 54.6923 31.0027C54.1885 31.0027 53.7477 31.4435 53.7477 31.9473V32.9549H53.5588V45.1089H53.7477V46.1165C53.7477 46.6203 54.1885 47.0611 54.6923 47.0611C55.1961 47.0611 55.6369 46.6203 55.6369 46.1165V45.1089H56.0777V33.0179H55.6369ZM53.5588 49.6431V52.288C54.3774 52.4769 55.1961 52.6658 56.0777 52.6658V50.1469C55.1961 50.0839 54.3774 49.895 53.5588 49.6431ZM54.8182 10.4102H48.9616C48.2689 10.4102 47.7021 10.9769 47.7021 11.6696V27.7281C48.4578 27.0983 49.3395 26.5316 50.2211 26.0278V12.9291H53.5588V24.7683C54.3774 24.5794 55.1961 24.4534 56.0777 24.3904V11.6696C56.0777 10.9769 55.511 10.4102 54.8182 10.4102Z" fill="#E4E8FF"></path><path d="M50.2208 23.194V26.0279C51.2914 25.4611 52.3619 25.0203 53.5585 24.7684V22.1864C52.4249 22.3754 51.2914 22.7532 50.2208 23.194ZM44.3642 46.4315V50.6508C45.3718 51.7213 46.4424 52.666 47.7019 53.4846V50.3989C46.3794 49.2653 45.2459 47.9429 44.3642 46.4315ZM44.3642 27.3503V31.6326C45.2459 30.1212 46.3794 28.7987 47.7019 27.6652V24.5165C46.4424 25.3352 45.3718 26.2798 44.3642 27.3503ZM50.2208 23.194V26.0279C51.2914 25.4611 52.3619 25.0203 53.5585 24.7684V22.1864C52.4249 22.3754 51.2914 22.7532 50.2208 23.194ZM44.3642 46.4315V50.6508C45.3718 51.7213 46.4424 52.666 47.7019 53.4846V50.3989C46.3794 49.2653 45.2459 47.9429 44.3642 46.4315ZM44.3642 27.3503V31.6326C45.2459 30.1212 46.3794 28.7987 47.7019 27.6652V24.5165C46.4424 25.3352 45.3718 26.2798 44.3642 27.3503ZM50.2208 23.194V26.0279C51.2914 25.4611 52.3619 25.0203 53.5585 24.7684V22.1864C52.4249 22.3754 51.2914 22.7532 50.2208 23.194ZM44.3642 46.4315V50.6508C45.3718 51.7213 46.4424 52.666 47.7019 53.4846V50.3989C46.3794 49.2653 45.2459 47.9429 44.3642 46.4315ZM44.3642 27.3503V31.6326C45.2459 30.1212 46.3794 28.7987 47.7019 27.6652V24.5165C46.4424 25.3352 45.3718 26.2798 44.3642 27.3503ZM50.2208 23.194V26.0279C51.2914 25.4611 52.3619 25.0203 53.5585 24.7684V22.1864C52.4249 22.3754 51.2914 22.7532 50.2208 23.194ZM44.3642 46.4315V50.6508C45.3718 51.7213 46.4424 52.666 47.7019 53.4846V50.3989C46.3794 49.2653 45.2459 47.9429 44.3642 46.4315ZM44.3642 27.3503V31.6326C45.2459 30.1212 46.3794 28.7987 47.7019 27.6652V24.5165C46.4424 25.3352 45.3718 26.2798 44.3642 27.3503ZM57.022 21.8086C56.7072 21.8086 56.3923 21.8086 56.0774 21.8086C55.1958 21.8716 54.3771 21.9345 53.5585 22.1235C52.4249 22.3754 51.2914 22.6902 50.2208 23.194C49.3392 23.5719 48.5205 24.0127 47.7019 24.5165C46.4424 25.2722 45.3718 26.2798 44.3642 27.3503C43.3566 28.4209 42.538 29.6174 41.8453 30.8769C40.5858 33.2699 39.8301 36.0408 39.8301 38.9376C39.8301 41.8344 40.5858 44.6053 41.8453 46.9983C42.538 48.2578 43.3566 49.5172 44.3642 50.5248C45.3718 51.5954 46.4424 52.54 47.7019 53.3587C48.5205 53.8625 49.3392 54.3663 50.2208 54.7441C51.2914 55.1849 52.4249 55.5628 53.5585 55.8147C54.3771 56.0036 55.1958 56.0666 56.0774 56.1295C56.3923 56.1295 56.7072 56.1925 57.022 56.1925C66.5311 56.1925 74.214 48.5097 74.214 39.0006C74.214 29.4914 66.5311 21.8086 57.022 21.8086ZM57.022 53.6735C56.7072 53.6735 56.3923 53.6735 56.0774 53.6106C55.1958 53.5476 54.3771 53.4216 53.5585 53.2327C52.3619 52.9178 51.2914 52.54 50.2208 51.9732C49.3392 51.5324 48.4575 50.9656 47.7019 50.3359C46.3794 49.2653 45.2459 47.9429 44.3642 46.4315C43.1047 44.2904 42.349 41.7714 42.349 39.0635C42.349 36.3556 43.1047 33.8367 44.3642 31.6326C45.2459 30.1212 46.3794 28.7987 47.7019 27.6652C48.4575 27.0355 49.3392 26.4687 50.2208 25.9649C51.2914 25.3981 52.3619 24.9573 53.5585 24.7054C54.3771 24.5165 55.1958 24.3905 56.0774 24.3276H57.022C65.1457 24.3276 71.695 30.9399 71.695 39.0006C71.695 47.0612 65.0827 53.6735 57.022 53.6735ZM44.3642 27.3503V31.6326C45.2459 30.1212 46.3794 28.7987 47.7019 27.6652V24.5165C46.4424 25.3352 45.3718 26.2798 44.3642 27.3503ZM44.3642 46.4315V50.6508C45.3718 51.7213 46.4424 52.666 47.7019 53.4846V50.3989C46.3794 49.2653 45.2459 47.9429 44.3642 46.4315ZM50.2208 23.194V26.0279C51.2914 25.4611 52.3619 25.0203 53.5585 24.7684V22.1864C52.4249 22.3754 51.2914 22.7532 50.2208 23.194ZM44.3642 27.3503V31.6326C45.2459 30.1212 46.3794 28.7987 47.7019 27.6652V24.5165C46.4424 25.3352 45.3718 26.2798 44.3642 27.3503ZM44.3642 46.4315V50.6508C45.3718 51.7213 46.4424 52.666 47.7019 53.4846V50.3989C46.3794 49.2653 45.2459 47.9429 44.3642 46.4315ZM50.2208 23.194V26.0279C51.2914 25.4611 52.3619 25.0203 53.5585 24.7684V22.1864C52.4249 22.3754 51.2914 22.7532 50.2208 23.194ZM44.3642 27.3503V31.6326C45.2459 30.1212 46.3794 28.7987 47.7019 27.6652V24.5165C46.4424 25.3352 45.3718 26.2798 44.3642 27.3503ZM44.3642 46.4315V50.6508C45.3718 51.7213 46.4424 52.666 47.7019 53.4846V50.3989C46.3794 49.2653 45.2459 47.9429 44.3642 46.4315ZM50.2208 23.194V26.0279C51.2914 25.4611 52.3619 25.0203 53.5585 24.7684V22.1864C52.4249 22.3754 51.2914 22.7532 50.2208 23.194ZM44.3642 27.3503V31.6326C45.2459 30.1212 46.3794 28.7987 47.7019 27.6652V24.5165C46.4424 25.3352 45.3718 26.2798 44.3642 27.3503ZM44.3642 46.4315V50.6508C45.3718 51.7213 46.4424 52.666 47.7019 53.4846V50.3989C46.3794 49.2653 45.2459 47.9429 44.3642 46.4315ZM50.2208 23.194V26.0279C51.2914 25.4611 52.3619 25.0203 53.5585 24.7684V22.1864C52.4249 22.3754 51.2914 22.7532 50.2208 23.194Z" fill="#E4E8FF"></path><path d="M57.0219 25.3984C56.707 25.3984 56.3921 25.3984 56.0772 25.4614C55.1956 25.5244 54.3769 25.6503 53.5583 25.8393C52.3618 26.1541 51.2282 26.5949 50.2206 27.2247C49.339 27.7285 48.4574 28.3582 47.7017 29.1139C46.2533 30.4364 45.1197 32.0737 44.364 33.9629C43.7343 35.5373 43.3564 37.3006 43.3564 39.1268C43.3564 40.9531 43.7343 42.7163 44.364 44.2907C45.1197 46.117 46.2533 47.7543 47.7017 49.1397C48.4574 49.8324 49.339 50.4622 50.2206 50.966C51.2282 51.5957 52.3618 52.0365 53.5583 52.3514C54.3769 52.5403 55.1956 52.7292 56.0772 52.7292C56.3921 52.7292 56.707 52.7922 57.0219 52.7922C64.5788 52.7922 70.6873 46.6837 70.6873 39.1268C70.6873 31.5699 64.5788 25.3984 57.0219 25.3984ZM57.0219 50.2103C56.707 50.2103 56.3921 50.2103 56.0772 50.1473C55.1956 50.0843 54.3769 49.8954 53.5583 49.6435C52.3618 49.2657 51.2282 48.6359 50.2206 47.8802C49.213 47.1245 48.3944 46.1799 47.7017 45.1723C46.5681 43.4091 45.8754 41.3309 45.8754 39.0638C45.8754 36.7968 46.5681 34.7186 47.7017 32.9553C48.3944 31.8848 49.213 31.0031 50.2206 30.2475C51.2282 29.4918 52.3618 28.862 53.5583 28.4842C54.3769 28.2323 55.1956 28.0434 56.0772 27.9804C56.3921 27.9804 56.707 27.9174 57.0219 27.9174C63.1303 27.9174 68.1683 32.8924 68.1683 39.0638C68.1683 45.2353 63.1933 50.2103 57.0219 50.2103Z" fill="#E4E8FF"></path><path d="M55.3847 34.2146V43.8496C55.3847 44.5423 54.8179 45.1091 54.1252 45.1091H54.0622H53.9992C53.9992 45.1091 53.9363 45.1091 53.8733 45.1091C53.8103 45.1091 53.8103 45.1091 53.7473 45.1091C53.6844 45.1091 53.6214 45.0461 53.5584 45.0461C53.4955 45.0461 53.4955 44.9831 53.4325 44.9831C53.3695 44.9831 53.3695 44.9202 53.3065 44.9202C53.2436 44.8572 53.1806 44.7942 53.1176 44.7313C53.0546 44.6683 53.0546 44.6683 52.9917 44.6053C52.9917 44.5423 52.9287 44.4794 52.9287 44.4794C52.8657 44.3534 52.8027 44.1645 52.8027 43.9756V42.7161H53.4955V35.474H52.8027V34.2146C52.8027 33.9627 52.8657 33.7108 52.9917 33.5218C52.9917 33.5218 53.0546 33.4589 53.0546 33.3959C53.0546 33.3329 53.1176 33.3329 53.1806 33.2699C53.2436 33.207 53.3695 33.081 53.4955 33.081C53.5584 33.081 53.6214 33.0181 53.6844 33.0181C53.8103 32.9551 53.9363 32.9551 54.0622 32.9551C54.1882 32.9551 54.3141 32.9551 54.4401 33.0181C55.0068 33.207 55.3847 33.6478 55.3847 34.2146Z" fill="#E4E8FF"></path><path d="M58.9112 33.0176H54.0622C53.9363 33.0176 53.8733 33.0176 53.7473 33.0806C53.6844 33.0806 53.6214 33.0806 53.5584 33.1435C53.4325 33.2065 53.3695 33.2695 53.2436 33.3324C53.1806 33.3324 53.1806 33.3954 53.1176 33.4584C53.1176 33.4584 53.0546 33.5214 53.0546 33.5843C52.8657 33.7733 52.8027 34.0881 52.8027 34.34V35.5365H53.5584V40.2596C53.6844 40.3226 53.8733 40.3856 54.0622 40.3856H58.9112C60.2337 40.3856 61.4302 39.6299 61.934 38.4963C62.1229 38.0555 62.2489 37.5517 62.2489 37.0479V36.4182C62.2489 34.529 60.7375 33.0176 58.9112 33.0176ZM55.3847 37.8036V35.5365H58.9742C59.415 35.5365 59.7929 35.9144 59.7929 36.3552V36.985C59.7929 37.4258 59.415 37.8036 58.9742 37.8036H55.3847Z" fill="#E4E8FF"></path><path d="M61.9345 38.4325C61.3677 38.0546 60.675 37.8027 59.9193 37.8027H54.1257C53.9368 37.8027 53.7478 37.8657 53.5589 37.9287V42.5888H52.8662V43.8483C52.8662 44.0372 52.9292 44.2261 52.9922 44.3521C52.9922 44.415 53.0551 44.478 53.0551 44.478C53.0551 44.541 53.1181 44.541 53.1811 44.604L53.37 44.7929C53.37 44.7929 53.433 44.8558 53.496 44.8558C53.5589 44.8558 53.5589 44.9188 53.6219 44.9188C53.6849 44.9188 53.7478 44.9818 53.8108 44.9818H53.9368H54.0627H54.1257H54.1887H59.9823C61.9345 44.9818 63.5088 43.4074 63.5088 41.4552V41.2033C63.4459 40.1328 62.8791 39.0622 61.9345 38.4325ZM60.9269 41.5812C60.9269 42.148 60.4861 42.5888 59.9193 42.5888H55.3852V40.3217H59.9193C60.4861 40.3217 60.9269 40.7625 60.9269 41.3293V41.5812Z" fill="#E4E8FF"></path><path d="M55.3847 34.2146C55.3847 34.5294 55.2587 34.8443 55.0069 35.0962C54.755 35.3481 54.4401 35.474 54.1252 35.474H51.9841C51.2914 35.474 50.7246 34.9073 50.7246 34.2146C50.7246 33.5218 51.2914 32.9551 51.9841 32.9551H54.1252C54.2512 32.9551 54.3771 32.9551 54.5031 33.0181C55.0069 33.207 55.3847 33.6478 55.3847 34.2146Z" fill="#E4E8FF"></path><path d="M55.3847 43.8493C55.3847 44.542 54.8179 45.1088 54.1252 45.1088H51.9841C51.2914 45.1088 50.7246 44.542 50.7246 43.8493C50.7246 43.1566 51.2914 42.5898 51.9841 42.5898H54.1252C54.5031 42.5898 54.8179 42.7158 55.0069 42.9677C55.2587 43.2196 55.3847 43.5345 55.3847 43.8493Z" fill="#E4E8FF"></path><path d="M55.6363 31.9466V34.2136C55.6363 34.4655 55.5104 34.6545 55.3844 34.8434C55.2585 34.9693 55.1955 35.0323 55.0066 35.0953C54.8806 35.1583 54.8176 35.1583 54.6917 35.1583C54.1879 35.1583 53.7471 34.7174 53.7471 34.2136V31.9466C53.7471 31.4428 54.1879 31.002 54.6917 31.002C55.1955 31.002 55.6363 31.4428 55.6363 31.9466Z" fill="#E4E8FF"></path><path d="M58.9117 31.9466V34.2136C58.9117 34.7174 58.4709 35.1583 57.9671 35.1583C57.4633 35.1583 57.0225 34.7174 57.0225 34.2136V31.9466C57.0225 31.4428 57.4633 31.002 57.9671 31.002C58.4709 31.002 58.9117 31.4428 58.9117 31.9466Z" fill="#E4E8FF"></path><path d="M55.6363 43.8489V46.116C55.6363 46.6198 55.1955 47.0606 54.6917 47.0606C54.1879 47.0606 53.7471 46.6198 53.7471 46.116V43.8489C53.7471 43.3451 54.1879 42.9043 54.6917 42.9043C54.8176 42.9043 54.8806 42.9043 55.0066 42.9673C55.1325 43.0302 55.2585 43.0932 55.3844 43.2192C55.5104 43.4081 55.6363 43.597 55.6363 43.8489Z" fill="#E4E8FF"></path><path d="M58.9117 43.8489V46.116C58.9117 46.6198 58.4709 47.0606 57.9671 47.0606C57.4633 47.0606 57.0225 46.6198 57.0225 46.116V43.8489C57.0225 43.3451 57.4633 42.9043 57.9671 42.9043C58.4709 42.9043 58.9117 43.3451 58.9117 43.8489Z" fill="#E4E8FF"></path><path d="M7.90222 12.6777H2.04562C1.3529 12.6777 0.786133 13.2445 0.786133 13.9372V26.2172C0.786133 26.9099 1.3529 27.4767 2.04562 27.4767H7.90222C8.59493 27.4767 9.1617 26.9099 9.1617 26.2172V13.9372C9.1617 13.2445 8.59493 12.6777 7.90222 12.6777ZM6.64273 24.9577H3.3051V15.1967H6.64273V24.9577Z" fill="#E4E8FF"></path><path d="M4.9421 32.0103C4.24938 32.0103 3.68262 31.4435 3.68262 30.7508V26.7204C3.68262 26.0277 4.24938 25.4609 4.9421 25.4609C5.63482 25.4609 6.20159 26.0277 6.20159 26.7204V30.7508C6.20159 31.4435 5.69779 32.0103 4.9421 32.0103Z" fill="#E4E8FF"></path><path d="M4.9421 15.1958C4.24938 15.1958 3.68262 14.629 3.68262 13.9363V9.90597C3.68262 9.21325 4.24938 8.64648 4.9421 8.64648C5.63482 8.64648 6.20159 9.21325 6.20159 9.90597V13.9363C6.20159 14.629 5.69779 15.1958 4.9421 15.1958Z" fill="#E4E8FF"></path><path d="M19.6151 8.45898H13.7585C13.0658 8.45898 12.499 9.02575 12.499 9.71847V21.9984C12.499 22.6912 13.0658 23.2579 13.7585 23.2579H19.6151C20.3078 23.2579 20.8746 22.6912 20.8746 21.9984V9.71847C20.8746 9.02575 20.3078 8.45898 19.6151 8.45898ZM18.3556 20.739H15.018V10.978H18.3556V20.739Z" fill="#E4E8FF"></path><path d="M16.7185 27.7915C16.0258 27.7915 15.459 27.2247 15.459 26.532V22.5017C15.459 21.809 16.0258 21.2422 16.7185 21.2422C17.4112 21.2422 17.978 21.809 17.978 22.5017V26.532C17.978 27.2247 17.4112 27.7915 16.7185 27.7915Z" fill="#E4E8FF"></path><path d="M16.7185 10.9771C16.0258 10.9771 15.459 10.4103 15.459 9.71757V5.68722C15.459 4.9945 16.0258 4.42773 16.7185 4.42773C17.4112 4.42773 17.978 4.9945 17.978 5.68722V9.71757C17.978 10.4103 17.4112 10.9771 16.7185 10.9771Z" fill="#E4E8FF"></path><path d="M31.3915 4.30273H25.5349C24.8422 4.30273 24.2754 4.8695 24.2754 5.56222V17.8422C24.2754 18.5349 24.8422 19.1017 25.5349 19.1017H31.3915C32.0842 19.1017 32.651 18.5349 32.651 17.8422V5.56222C32.651 4.8695 32.0842 4.30273 31.3915 4.30273ZM30.069 16.5827H26.7314V6.8217H30.069V16.5827Z" fill="#E4E8FF"></path><path d="M28.4314 23.5728C27.7386 23.5728 27.1719 23.006 27.1719 22.3133V18.2829C27.1719 17.5902 27.7386 17.0234 28.4314 17.0234C29.1241 17.0234 29.6908 17.5902 29.6908 18.2829V22.3133C29.6908 23.006 29.1241 23.5728 28.4314 23.5728Z" fill="#E4E8FF"></path><path d="M28.4314 6.8208C27.7386 6.8208 27.1719 6.25403 27.1719 5.56132V1.53097C27.1719 0.838252 27.7386 0.271484 28.4314 0.271484C29.1241 0.271484 29.6908 0.838252 29.6908 1.53097V5.56132C29.6908 6.25403 29.1241 6.8208 28.4314 6.8208Z" fill="#E4E8FF"></path></svg> 