<?xml version="1.0" encoding="UTF-8"?> <svg xmlns="http://www.w3.org/2000/svg" width="68" height="68" viewBox="0 0 68 68" fill="none"><g clip-path="url(#clip0_120_175)"><mask id="mask0_120_175" style="mask-type:luminance" maskUnits="userSpaceOnUse" x="0" y="0" width="68" height="68"><path d="M0 7.62939e-06H68V68H0V7.62939e-06Z" fill="white"></path></mask><g mask="url(#mask0_120_175)"><path d="M34.0001 42.334C31.9001 42.334 30.1613 40.7025 30.0275 38.6067L29.7861 34.8238C29.631 32.3911 31.5623 30.3325 34.0001 30.3325C36.4379 30.3325 38.3692 32.3911 38.2141 34.8238L37.9728 38.6067C37.839 40.7025 36.1001 42.334 34.0001 42.334Z" stroke="#E4E8FF" stroke-width="2" stroke-miterlimit="10" stroke-linecap="round" stroke-linejoin="round"></path><path d="M34.375 37.1014V37.9525C34.375 38.311 34.0844 38.6016 33.7259 38.6016H33.625" stroke="#E4E8FF" stroke-width="2" stroke-miterlimit="10" stroke-linecap="round" stroke-linejoin="round"></path><path d="M54.4095 32.9513C54.6454 33.5249 54.7583 34.1604 54.7161 34.824L54.4746 38.6067C54.3409 40.7025 52.6021 42.334 50.5021 42.334C48.402 42.334 46.6631 40.7025 46.5294 38.6067L46.288 34.824C46.1328 32.3911 48.0641 30.3325 50.5021 30.3325C50.628 30.3325 50.7527 30.3381 50.8758 30.3489" stroke="#E4E8FF" stroke-width="2" stroke-miterlimit="10" stroke-linecap="round" stroke-linejoin="round"></path><path d="M50.8769 37.1014V37.9525C50.8769 38.311 50.5864 38.6016 50.2279 38.6016H50.127" stroke="#E4E8FF" stroke-width="2" stroke-miterlimit="10" stroke-linecap="round" stroke-linejoin="round"></path><path d="M17.4981 42.334C15.3981 42.334 13.6593 40.7025 13.5256 38.6067L13.2841 34.8238C13.129 32.3911 15.0604 30.3325 17.4981 30.3325C19.9359 30.3325 21.8673 32.3911 21.7121 34.8238L21.4708 38.6067C21.3371 40.7025 19.5983 42.334 17.4981 42.334Z" stroke="#E4E8FF" stroke-width="2" stroke-miterlimit="10" stroke-linecap="round" stroke-linejoin="round"></path><path d="M17.873 37.1014V37.9525C17.873 38.311 17.5824 38.6016 17.224 38.6016H17.123" stroke="#E4E8FF" stroke-width="2" stroke-miterlimit="10" stroke-linecap="round" stroke-linejoin="round"></path><path d="M38.0957 6.49706L32.6353 11.9574L29.905 9.22729L27.1748 11.9574L32.6353 17.418L40.8259 9.22729L38.0957 6.49706Z" stroke="#E4E8FF" stroke-width="2" stroke-miterlimit="10" stroke-linecap="round" stroke-linejoin="round"></path><path d="M42.2511 55.002C40.151 55.002 38.4122 53.3705 38.2785 51.2747L38.0371 47.4919C37.8819 45.0591 39.8133 43.0005 42.2511 43.0005C44.6888 43.0005 46.6202 45.0591 46.4651 47.4919L46.2237 51.2747C46.09 53.3705 44.3512 55.002 42.2511 55.002Z" stroke="#E4E8FF" stroke-width="2" stroke-miterlimit="10" stroke-linecap="round" stroke-linejoin="round"></path><path d="M42.6261 49.7714V50.6224C42.6261 50.9809 42.3355 51.2715 41.9769 51.2715H41.876" stroke="#E4E8FF" stroke-width="2" stroke-miterlimit="10" stroke-linecap="round" stroke-linejoin="round"></path><path d="M37.667 62.5033V67.0039" stroke="#E4E8FF" stroke-width="2" stroke-miterlimit="10" stroke-linecap="round" stroke-linejoin="round"></path><path d="M46.835 62.5033V67.0039" stroke="#E4E8FF" stroke-width="2" stroke-miterlimit="10" stroke-linecap="round" stroke-linejoin="round"></path><path d="M48.2202 57.4325L45.7516 56.8153C45.0168 56.6316 44.5012 55.9713 44.5012 55.2139V54.3057C43.8596 54.746 43.0837 55.0026 42.251 55.0026C41.4182 55.0026 40.6422 54.746 40.0007 54.3057V55.2139C40.0007 55.9713 39.4852 56.6316 38.7503 56.8153L36.2817 57.4325C34.9407 57.7676 34 58.9726 34 60.3549V67.0039H50.502V60.3549C50.502 58.9726 49.5612 57.7676 48.2202 57.4325Z" stroke="#E4E8FF" stroke-width="2" stroke-miterlimit="10" stroke-linecap="round" stroke-linejoin="round"></path><path d="M58.753 55.002C56.653 55.002 54.9142 53.3705 54.7805 51.2747L54.539 47.4919C54.3839 45.0591 56.3152 43.0005 58.753 43.0005C61.1908 43.0005 63.1221 45.0591 62.967 47.4919L62.7257 51.2747C62.592 53.3705 60.8532 55.002 58.753 55.002Z" stroke="#E4E8FF" stroke-width="2" stroke-miterlimit="10" stroke-linecap="round" stroke-linejoin="round"></path><path d="M59.1281 49.7714V50.6224C59.1281 50.9809 58.8375 51.2715 58.4789 51.2715H58.3779" stroke="#E4E8FF" stroke-width="2" stroke-miterlimit="10" stroke-linecap="round" stroke-linejoin="round"></path><path d="M54.1689 62.5033V67.0039" stroke="#E4E8FF" stroke-width="2" stroke-miterlimit="10" stroke-linecap="round" stroke-linejoin="round"></path><path d="M63.3369 62.5033V67.0039" stroke="#E4E8FF" stroke-width="2" stroke-miterlimit="10" stroke-linecap="round" stroke-linejoin="round"></path><path d="M50.502 67.0039H66.8674C66.9428 67.0039 67.0039 66.9428 67.0039 66.8675V60.3549C67.0039 58.9725 66.0632 57.7676 64.7222 57.4325L62.2536 56.8152C61.5187 56.6315 61.0032 55.9713 61.0032 55.2139V54.3057C60.3616 54.746 59.5857 55.0026 58.7529 55.0026C57.9202 55.0026 57.1443 54.746 56.5027 54.3057V55.2139C56.5027 55.9713 55.9871 56.6315 55.2523 56.8152L52.7837 57.4325C51.4427 57.7676 50.502 58.9725 50.502 60.3549" stroke="#E4E8FF" stroke-width="2" stroke-miterlimit="10" stroke-linecap="round" stroke-linejoin="round"></path><path d="M25.7491 55.002C23.6491 55.002 21.9103 53.3705 21.7766 51.2747L21.5351 47.4919C21.38 45.0591 23.3113 43.0005 25.7491 43.0005C28.1869 43.0005 30.1182 45.0591 29.9631 47.4919L29.7218 51.2747C29.5881 53.3705 27.8493 55.002 25.7491 55.002Z" stroke="#E4E8FF" stroke-width="2" stroke-miterlimit="10" stroke-linecap="round" stroke-linejoin="round"></path><path d="M26.1241 49.7714V50.6224C26.1241 50.9809 25.8336 51.2715 25.475 51.2715H25.374" stroke="#E4E8FF" stroke-width="2" stroke-miterlimit="10" stroke-linecap="round" stroke-linejoin="round"></path><path d="M21.165 62.5033V67.0039" stroke="#E4E8FF" stroke-width="2" stroke-miterlimit="10" stroke-linecap="round" stroke-linejoin="round"></path><path d="M30.333 62.5033V67.0039" stroke="#E4E8FF" stroke-width="2" stroke-miterlimit="10" stroke-linecap="round" stroke-linejoin="round"></path><path d="M17.498 65.3978V67.0039H34" stroke="#E4E8FF" stroke-width="2" stroke-miterlimit="10" stroke-linecap="round" stroke-linejoin="round"></path><path d="M34 60.3557C34 58.9734 33.0593 57.7685 31.7183 57.4333L29.2497 56.8161C28.5148 56.6324 27.9993 55.9721 27.9993 55.2146V54.3065C27.3576 54.7469 26.5818 55.0033 25.749 55.0033C24.9163 55.0033 24.1404 54.7469 23.4988 54.3065V55.2146C23.4988 55.9721 22.9832 56.6324 22.2484 56.8161L19.7798 57.4333C18.4388 57.7685 17.498 58.9734 17.498 60.3557V60.75" stroke="#E4E8FF" stroke-width="2" stroke-miterlimit="10" stroke-linecap="round" stroke-linejoin="round"></path><path d="M9.24715 55.002C7.14712 55.002 5.40834 53.3705 5.2746 51.2747L5.03315 47.4919C4.87802 45.0591 6.80938 43.0005 9.24715 43.0005C11.6849 43.0005 13.6163 45.0591 13.4612 47.4919L13.2198 51.2747C13.0861 53.3705 11.3473 55.002 9.24715 55.002Z" stroke="#E4E8FF" stroke-width="2" stroke-miterlimit="10" stroke-linecap="round" stroke-linejoin="round"></path><path d="M9.6222 49.7714V50.6224C9.6222 50.9809 9.3316 51.2715 8.97301 51.2715H8.87207" stroke="#E4E8FF" stroke-width="2" stroke-miterlimit="10" stroke-linecap="round" stroke-linejoin="round"></path><path d="M4.66309 62.5033V67.0039" stroke="#E4E8FF" stroke-width="2" stroke-miterlimit="10" stroke-linecap="round" stroke-linejoin="round"></path><path d="M13.8311 62.5033V67.0039" stroke="#E4E8FF" stroke-width="2" stroke-miterlimit="10" stroke-linecap="round" stroke-linejoin="round"></path><path d="M17.498 60.3549C17.498 58.9726 16.5573 57.7677 15.2163 57.4325L12.7477 56.8153C12.0129 56.6317 11.4973 55.9713 11.4973 55.2139V54.3057C10.8557 54.7461 10.0798 55.0026 9.24707 55.0026C8.41434 55.0026 7.63844 54.7461 6.99683 54.3057V55.2139C6.99683 55.9713 6.48125 56.6317 5.7464 56.8153L3.27781 57.4325C1.9368 57.7677 0.996094 58.9726 0.996094 60.3549V66.8675C0.996094 66.9429 1.05719 67.0039 1.13262 67.0039H17.498" stroke="#E4E8FF" stroke-width="2" stroke-miterlimit="10" stroke-linecap="round" stroke-linejoin="round"></path><path d="M17.498 17.0422V22.8539C17.498 22.9336 17.5626 22.9983 17.6423 22.9983H30.2731C30.3114 22.9983 30.3481 23.0134 30.3751 23.0405L33.898 26.5632C33.9543 26.6195 34.0457 26.6195 34.102 26.5632L37.6248 23.0405C37.6519 23.0134 37.6886 22.9983 37.7268 22.9983H50.3577C50.4374 22.9983 50.5019 22.9336 50.5019 22.8539V1.14C50.5019 1.06018 50.4374 0.995633 50.3577 0.995633H17.6423C17.5626 0.995633 17.498 1.06018 17.498 1.14V12.3936" stroke="#E4E8FF" stroke-width="2" stroke-miterlimit="10" stroke-linecap="round" stroke-linejoin="round"></path><path d="M15.2478 41.6377V42.5459C15.2478 43.3033 14.7322 43.9636 13.9974 44.1473L12.4932 44.5234" stroke="#E4E8FF" stroke-width="2" stroke-miterlimit="10" stroke-linecap="round" stroke-linejoin="round"></path><path d="M20.9985 44.1465C20.2636 43.9628 19.748 43.3026 19.748 42.545V41.6369" stroke="#E4E8FF" stroke-width="2" stroke-miterlimit="10" stroke-linecap="round" stroke-linejoin="round"></path><path d="M31.7498 41.6377V42.5459C31.7498 43.3033 31.2342 43.9636 30.4994 44.1473L28.9951 44.5234" stroke="#E4E8FF" stroke-width="2" stroke-miterlimit="10" stroke-linecap="round" stroke-linejoin="round"></path><path d="M39.0045 44.5234L37.5004 44.1473C36.7656 43.9636 36.25 43.3033 36.25 42.5459V41.6377" stroke="#E4E8FF" stroke-width="2" stroke-miterlimit="10" stroke-linecap="round" stroke-linejoin="round"></path><path d="M48.2517 41.6377V42.5459C48.2517 43.3033 47.7362 43.9636 47.0013 44.1473L45.4971 44.5234" stroke="#E4E8FF" stroke-width="2" stroke-miterlimit="10" stroke-linecap="round" stroke-linejoin="round"></path><path d="M55.5065 44.5234L54.0024 44.1473C53.2675 43.9636 52.752 43.3033 52.752 42.5459V41.6377" stroke="#E4E8FF" stroke-width="2" stroke-miterlimit="10" stroke-linecap="round" stroke-linejoin="round"></path></g></g><defs><clipPath id="clip0_120_175"><rect width="68" height="68" fill="white"></rect></clipPath></defs></svg> 